<svg width="558" height="557" viewBox="0 0 558 557" fill="none" xmlns="http://www.w3.org/2000/svg">
          <g clip-path="url(#clip0_25_777)">
          <path d="M60.148 35.7411C58.7531 35.0448 57.7996 35.9773 56.7627 36.6592C56.4318 35.0718 54.3275 35.1906 53.8687 33.7126C53.6815 33.6735 53.4865 33.7003 53.3169 33.7885C53.1775 33.9073 53.0408 34.2881 53.0987 34.3405C54.1889 35.3299 54.6466 37.3745 56.8095 36.6155C56.4211 38.0077 55.4433 38.3149 54.5446 37.3437C53.1357 35.822 50.5946 35.2711 50.4092 32.6829C47.3926 32.8348 48.9858 29.6023 48.0764 29.152C45.2841 27.7693 47.6016 25.6378 46.8488 24.0614C45.9433 22.1661 47.2136 20.889 48.4812 19.6193C47.7958 19.9728 47.2368 20.6779 46.6119 20.223C45.9368 19.7317 46.4348 18.887 46.8271 18.5012C47.7254 17.6174 47.3084 17.0828 46.3835 16.5957C47.3952 16.0057 48.4965 16.4567 49.7104 15.4567C48.3015 15.7069 47.0205 16.0102 46.8728 14.6753C46.7802 13.8401 46.8629 12.3909 48.5776 13.0462C48.6179 13.0617 48.8316 12.821 48.8091 12.7755C47.7128 10.5415 50.8345 10.0039 50.7131 7.85006C50.619 6.16207 52.9845 5.2015 54.3005 4.21399C59.8113 0.0756198 65.9927 -0.547785 72.7689 0.852046C75.3202 1.3794 78.0882 1.38775 80.6646 2.1786C83.9014 3.17143 86.5045 5.1905 89.2271 7.14616C92.2997 9.35316 94.685 12.0761 97.0307 14.9244C98.9621 17.2692 100.246 19.9778 101.331 22.7596C102.009 24.495 101.333 24.8644 98.4374 24.506C98.9994 25.8922 100.106 26.7715 101.072 26.1481C102.399 25.2916 102.288 26.3691 102.45 26.9074C102.693 27.7154 102.468 28.578 102.842 29.4459C103.142 30.1418 102.39 30.5351 101.662 30.7345C100.476 31.0598 100.488 31.1027 99.8874 32.6415C100.927 31.4186 101.899 32.5629 102.942 32.2486C103.462 32.0918 103.692 33.3238 103.323 34.0755C101.559 37.6759 101.654 41.0667 104.436 44.1716C104.613 44.4088 104.759 44.6669 104.871 44.9401C104.966 45.125 104.978 45.3991 105.36 45.259C106.03 44.7248 105.525 44.306 105.18 43.8163C104.413 42.7247 104.963 41.4392 106.274 41.6142C109.274 42.011 112.417 40.7789 115.354 42.7111C116.096 43.1993 117.835 42.2114 119.104 41.8572C119.626 41.7114 120.144 41.3697 120.146 42.3196C120.146 42.855 120.486 43.0357 120.818 42.6697C122.082 41.2786 123.358 41.6339 124.963 42.1271C125.999 42.4457 127.194 41.375 128.625 41.719C129.11 41.803 129.573 41.9817 129.988 42.2448C130.403 42.5079 130.762 42.8503 131.043 43.2521C132.356 45.0642 132.374 45.0513 134.409 43.6777C133.813 42.5603 132.939 41.9798 131.574 42.2649C133.554 41.7566 135.56 40.2421 137.172 42.913C137.541 43.5251 137.72 42.7703 137.974 42.4495C138.319 41.9649 138.791 41.5845 139.338 41.3501C139.886 41.1157 140.488 41.0363 141.077 41.1206C144.082 41.5383 147.179 40.9517 150.034 40.665C153.192 40.2938 156.33 39.7633 159.434 39.0758C169.898 36.9117 180.528 35.1937 190.419 31.0648C203.637 25.5452 216.607 19.4588 226.747 8.83416C229.265 6.19586 231.958 3.7041 235.338 2.1376C236.202 1.73743 237.121 1.16907 238.04 1.9789C239.037 2.85631 237.654 3.48694 237.684 4.33967C237.705 4.92854 237.113 5.63927 236.426 6.06943C233.229 8.07028 230.654 10.7773 228.201 13.5785C220.717 22.1308 211.293 28.0168 201.519 33.5744C190.265 40.029 178.062 44.6766 165.357 47.3464C161.115 48.2299 157.013 49.9691 152.624 49.9756C150.377 49.979 148.1 49.8184 145.922 50.2414C143.644 50.7048 141.334 50.998 139.012 51.1184C138.279 51.1503 137.536 51.3462 136.838 50.902C136.367 50.602 135.81 49.7687 135.592 51.1905C135.516 51.6803 134.88 51.2642 134.494 51.0557C133.667 50.6104 132.812 49.9953 131.984 51.0842C131.881 51.1797 131.761 51.2547 131.63 51.3052C130.309 49.1863 129.75 51.4783 128.955 51.8318C126.137 53.0847 127.171 50.4935 126.684 49.5485C124.823 50.5572 123.65 52.7616 121.058 51.9354C120.694 51.1245 121.747 51.3413 122.1 50.9008C121.01 50.4339 120.136 50.2121 119.844 51.765C119.723 52.4051 119.21 52.533 118.625 52.235C116.819 51.3128 116.819 51.3124 115.429 52.2787C114.949 51.8056 115.212 51.1734 115.08 50.6408C115.034 50.4578 114.848 50.1445 114.79 50.1582C114.506 50.1943 114.241 50.3191 114.032 50.5147C112.879 52.0733 109.285 53.0376 107.489 52.2312C107.423 52.2016 107.365 52.0926 107.315 52.1002C105.551 52.3618 103.914 51.3158 102.295 51.3811C99.6715 51.4874 98.9541 54.1686 97.6 55.9067C97.1202 56.5222 97.0239 57.4201 96.6644 58.1468C91.9902 67.5906 93.805 77.0614 101.414 84.406C105.594 88.4415 110.538 91.4098 115.122 94.8773C117.88 96.9654 120.406 99.3953 123.605 100.87C124.19 101.14 124.434 101.706 124.665 102.256C124.837 102.664 125.058 103.15 124.66 103.496C124.262 103.841 123.76 103.496 123.433 103.309C121.643 102.277 119.932 101.112 118.133 100.099C114.529 98.0706 111.321 95.4593 107.704 93.3886C103.831 91.1725 99.9084 88.4848 97.1149 84.7026C97.0208 84.5754 96.7493 84.5784 96.279 84.4368C96.8347 85.8519 97.7265 87.1114 98.8779 88.107C101.34 90.3063 103.962 92.3211 106.722 94.135C109.289 95.7596 112.222 97.0501 114.035 99.7131C114.547 100.465 115.548 100.411 116.241 100.694C118.625 101.667 120.132 104.021 122.79 104.533C123.606 104.69 123.91 105.54 123.182 106.48C120.503 109.935 119.113 110.603 115.096 109.354C108.034 107.158 101.85 103.346 95.995 98.9389C95.2041 98.3209 94.3487 97.7898 93.4436 97.3546C96.049 100.928 100.092 102.685 103.966 105.371C95.7665 104.126 84.1679 90.3471 86.3838 85.0127C84.5362 84.5382 83.1405 81.7066 84.0091 79.9396C84.2841 79.3808 84.6946 78.9039 84.3233 78.345C82.3489 75.3916 83.0922 72.1819 84.0114 69.3014C85.0015 66.1923 84.4269 62.6861 86.5136 59.8967C88.3391 57.4569 89.0695 54.4374 90.7362 51.9157C91.2507 51.1378 91.4148 50.4221 90.6464 49.7786C89.8467 49.1081 89.1152 49.3803 88.6091 50.1863C88.1084 50.9836 87.319 50.738 86.6381 50.8017C85.995 50.8621 85.7855 50.2296 86.2547 50.0208C88.2348 49.1392 85.7863 48.9463 86.161 48.3613C84.9805 50.2664 83.4467 50.5447 81.4053 49.1832C81.2927 49.1029 81.1593 49.0566 81.021 49.0499C80.8827 49.0431 80.7453 49.0762 80.6254 49.1453C79.4564 49.5686 78.0806 50.2516 78.8052 47.8684C78.948 47.3999 78.4362 46.6395 77.9797 47.305C76.7992 49.0249 75.2285 47.8711 74.1006 47.7208C72.0983 47.455 70.1891 46.4196 68.2744 45.6326C67.7493 45.4162 67.0822 44.885 67.2844 44.3201C67.4778 43.7855 68.1472 44.0475 68.5737 44.374C69.5052 44.1728 70.5299 44.7183 71.4201 44.057C72.5302 43.0338 73.8923 42.9912 75.356 43.1078C73.2997 42.2095 71.9217 40.3666 69.6727 39.8472C68.3847 39.5093 67.1932 38.877 66.1926 38.0005C63.7339 35.8983 60.659 34.7813 58.1495 32.782C57.9089 32.5899 57.4428 32.2471 57.1915 32.6681C57.1281 32.7565 57.0851 32.8577 57.0656 32.9646C57.046 33.0714 57.0504 33.1813 57.0784 33.2862C57.1064 33.3912 57.1573 33.4887 57.2274 33.5718C57.2976 33.6549 57.3853 33.7215 57.4843 33.7669C58.4256 34.3371 59.2664 35.0722 60.148 35.7411ZM79.7945 44.606C79.5112 44.2263 79.349 43.4487 78.7474 43.7707C78.0958 44.1185 77.6016 44.773 77.0875 45.338C77.046 45.3839 77.3517 45.8095 77.5555 45.994C77.8182 46.2325 79.4263 45.161 79.7504 44.5513C80.4819 45.0411 81.0348 45.8611 82.128 45.644C82.695 45.5301 83.2894 45.3023 83.1261 44.7578C82.8032 43.6887 81.5885 44.4738 80.8867 43.896C80.1232 43.2661 79.9488 44.0365 79.7945 44.606ZM80.9137 5.49271C81.0367 6.4153 81.7491 6.93545 82.43 7.32309C85.1626 8.87365 87.4565 10.9948 89.9461 12.8617C90.6406 13.3826 91.1806 14.2626 92.7723 14.2755C89.3364 10.0901 85.5319 7.23272 80.8413 5.53068C79.8631 4.70832 78.8643 3.96646 77.4694 4.54772C77.2067 4.65745 76.8548 4.66959 76.8415 5.03825C76.8228 5.54662 77.2329 5.63015 77.6031 5.62331C78.7066 5.60243 79.8101 5.53941 80.9137 5.49271ZM76.6743 37.8821C76.2649 38.0582 75.8128 38.1114 75.3735 38.035C74.9342 37.9586 74.5269 37.7559 74.2015 37.4519C73.5022 36.8609 72.7303 36.3609 71.9045 35.964C70.0767 35.1394 67.3133 33.8379 66.1374 33.0356C64.0294 31.5978 62.0904 29.9273 59.9884 28.5104C57.2718 26.6793 55.0453 24.3796 54.1093 21.6764C54.0962 21.604 54.0645 21.5362 54.0174 21.4796C53.9703 21.423 53.9093 21.3795 53.8403 21.3533C53.7714 21.3271 53.6969 21.3191 53.6239 21.3301C53.5509 21.341 53.482 21.3706 53.4239 21.4159C52.577 21.8882 52.1007 24.6142 52.8562 24.754C54.5172 25.0611 54.8157 26.4674 55.7464 27.3873C60.0435 31.6206 65.0037 35.1275 70.432 37.7704C72.1456 38.6148 74.3972 38.5708 75.7574 40.4198C76.3899 41.2797 77.0841 40.5739 77.038 39.5465C78.3753 40.3024 80.0748 40.0401 81.2648 41.5493C81.7693 42.1894 83.6089 42.8781 84.8724 42.1719C85.2102 41.9821 84.0864 40.995 84.5575 40.2151C83.4128 40.0287 83.6482 39.3745 84.235 38.8962C84.7978 38.4364 85.471 38.4565 85.8842 39.2644C86.1248 39.7356 86.5281 40.3157 87.0585 40.0898C89.1034 39.2189 90.7617 40.2774 92.497 41.0071C93.5046 41.4308 95.7516 40.1912 95.5673 39.1088C95.3354 37.7477 95.867 37.0377 97.0098 36.3475C95.9363 36.322 94.8183 37.368 94.1953 35.7932C93.6896 34.5156 94.2288 33.7141 95.1732 33.2182C94.8861 32.4175 94.1717 32.394 93.5404 31.9832C94.4276 31.9308 95.1835 32.0079 95.5559 31.1305C95.1504 30.7888 94.4489 31.1734 94.2258 30.4774C93.7213 28.9045 93.1623 27.3721 91.3622 26.737C90.9518 26.5919 91.1121 26.0441 91.3805 25.7878C92.9669 24.2752 91.4894 24.0531 90.4857 23.6617C89.7931 23.4005 89.1606 23.0025 88.6263 22.4915C84.1101 18.2094 78.8414 14.7935 73.0838 12.4148C72.815 12.2873 72.5175 12.2318 72.2206 12.2536C71.9237 12.2755 71.6376 12.3739 71.3905 12.5393C70.8874 12.9034 70.5238 12.7971 69.9766 12.6532C67.2349 11.9284 64.4395 12.1931 61.7389 12.7721C60.4929 13.0378 59.6297 12.9163 58.6884 12.0803C58.2737 12.5496 58.9572 13.3385 58.0163 13.7216C53.4574 15.5786 52.9331 17.6439 55.7612 21.5716C58.6225 25.5456 62.4315 28.5073 66.4554 31.1039C68.365 32.3367 70.2306 33.7388 72.6048 34.4935C74.195 34.9993 76.4771 35.3896 77.5631 37.2693C77.33 37.5635 77.2215 38.037 76.6743 37.8821ZM122.938 46.3388C124.148 45.3353 122.36 44.9872 122.469 43.9431C122.585 42.8272 119.775 45.0893 119.293 42.7805C119.267 42.6594 118.812 42.9464 118.63 43.1913C117.564 44.6185 118.823 45.1402 119.668 45.7848C120.402 46.3456 121.445 46.5559 121.428 47.8312C121.419 48.4604 119.938 48.7276 120.952 49.3788C121.651 49.8283 121.873 48.5705 122.501 48.433C124.214 48.0583 122.664 46.9557 122.938 46.3388ZM86.7626 45.0479C88.2603 44.2415 89.9171 44.0414 91.2522 43.1629C91.7324 42.847 92.1661 42.577 91.6577 41.9745C90.3543 40.4327 88.7428 40.6814 87.929 42.5303C87.5555 43.3759 87.1514 44.2085 86.7615 45.0471L86.7626 45.0479ZM79.1053 13.9114C81.9673 15.1981 84.024 18.0293 87.2562 18.6296C84.6283 16.8876 82.1749 14.8428 79.1042 13.9107L79.1053 13.9114ZM70.1517 8.04559C70.3882 8.4579 69.6426 9.20016 70.4838 9.32127C71.3124 9.44049 71.3821 8.486 71.2796 8.0509C71.0721 7.16286 70.9693 6.42555 71.411 5.5341C71.6741 5.00256 70.8292 4.60467 70.4255 4.23298C70.253 4.0739 69.6902 4.16654 69.4096 4.32676C68.6971 4.7349 69.4572 5.2239 69.4343 5.69355C69.3909 6.55122 70.8467 6.93659 70.1506 8.04483L70.1517 8.04559ZM106.165 49.1616C106.355 47.5788 108.671 49.1529 108.547 47.69C108.422 46.2271 106.495 46.529 105.611 46.4348C103.691 46.2306 106.771 47.6342 105.348 48.072C105.213 48.1133 105.393 48.9911 106.165 49.1616ZM117.482 105.529C118.34 104.633 118.159 106.478 118.741 105.712C119.066 105.284 118.7 104.785 117.992 104.728C117.371 104.677 116.996 104.198 116.599 103.726C116.161 103.205 115.658 103.757 115.199 103.889C115.131 103.908 115.128 104.429 115.149 104.433C116.427 104.675 116.394 106.289 117.517 106.663C117.607 106.693 117.74 106.593 117.915 106.532L117.482 105.529ZM106.003 98.5767C108.761 100.98 109.053 101.148 110.532 101.182C109.231 99.7807 107.167 98.5934 106.003 98.5767ZM99.1963 21.8727C99.1792 21.1471 96.9743 22.9486 98.2363 20.9303C98.6552 20.2606 98.0109 20.4747 97.8083 20.3263C97.2877 19.9424 97.0798 20.4713 97.0757 20.7276C97.0619 21.5754 97.0014 22.6924 97.7881 23.0512C98.5851 23.4149 98.8719 22.3947 99.1963 21.8727ZM94.1317 95.274C95.2772 96.7995 96.3994 97.6279 97.779 98.1333C96.9397 96.9434 96.3083 95.5139 94.1317 95.274ZM115.805 49.3662C116.468 48.7109 117.985 49.5181 118.084 48.042C118.116 47.575 117.745 47.2716 117.218 47.2727C115.894 47.2758 115.978 48.3882 115.805 49.3662ZM92.4814 44.8174C93.3884 44.0581 95.3442 44.1409 94.4745 41.4923C94.0701 43.1606 92.1394 43.0983 92.4814 44.8174Z" fill="#A1D2FF"/>
          </g>
          <g clip-path="url(#clip1_25_777)">
          <path d="M480.983 473.133C480.713 473.673 480.407 473.98 480.083 473.998H479.777C470.308 473.8 453.655 425.03 429.657 427.82L428.883 427.91C428.883 427.91 451.693 417.108 463.089 422.995C481.019 432.267 483.81 467.192 480.983 473.133Z" fill="url(#paint0_linear_25_777)"/>
          <g ClassName="mix-blend-mode:multiply">
          <path d="M480.984 473.134C480.713 473.674 480.407 473.98 480.083 473.998H479.777C470.308 473.8 453.655 425.03 429.657 427.82C429.657 427.82 456.121 417.343 468.561 438.802C474.683 449.429 478.888 461.05 480.984 473.134Z" fill="#C2D2DC"/>
          </g>
          <path d="M481.542 503.468C481.465 503.466 481.39 503.449 481.321 503.416C481.251 503.384 481.189 503.337 481.139 503.28C481.088 503.222 481.05 503.155 481.026 503.082C481.002 503.009 480.994 502.933 481.002 502.856C481.002 502.082 485.214 430.611 446.994 425.354C446.67 425.354 446.994 423.734 446.994 423.41C446.994 423.086 448.488 423.41 448.794 423.41C488.077 428.81 482.172 502.1 482.118 502.874C482.12 502.952 482.107 503.028 482.079 503.1C482.051 503.172 482.009 503.238 481.956 503.293C481.902 503.349 481.838 503.393 481.766 503.423C481.695 503.453 481.619 503.468 481.542 503.468Z" fill="url(#paint1_linear_25_777)"/>
          <path d="M543.688 444.599C519.456 440.998 502.623 490.038 493.063 490.686H492.631C492.44 490.663 492.266 490.566 492.145 490.416C488.689 486.924 490.939 449.352 509.554 439.738C520.662 433.941 542.517 444.005 543.688 444.599Z" fill="url(#paint2_linear_25_777)"/>
          <g ClassName="mix-blend-mode:multiply">
          <path d="M543.688 444.581C519.456 440.98 502.623 490.02 493.063 490.668H492.631C492.44 490.645 492.266 490.548 492.145 490.398C493.784 481.901 496.79 464.6 506.818 452.304C520.284 435.723 542.085 444.023 543.688 444.581Z" fill="#C2D2DC"/>
          </g>
          <path d="M491.137 520.157C490.987 520.157 490.844 520.099 490.736 519.995C490.629 519.891 490.566 519.749 490.561 519.599C490.561 518.825 486.006 446.273 525.289 440.872C525.631 440.872 526.387 440.872 526.441 441.232C526.495 441.593 526.441 442.151 526.153 442.187C487.933 447.443 491.677 518.771 491.713 519.599C491.721 519.676 491.712 519.754 491.689 519.828C491.666 519.902 491.628 519.97 491.577 520.029C491.527 520.088 491.465 520.136 491.396 520.17C491.326 520.205 491.25 520.225 491.173 520.229L491.137 520.157Z" fill="url(#paint3_linear_25_777)"/>
          <path d="M483.126 441.214V441.448L482.82 441.196C480.875 439.396 469.804 428.792 464.493 404.128C457.094 369.923 443.897 362.164 443.069 361.713L442.313 361.335C442.562 361.273 442.815 361.225 443.069 361.191C461.504 357.789 475.475 366.736 480.785 388.196C486.582 411.906 483.504 438.172 483.126 441.214Z" fill="url(#paint4_linear_25_777)"/>
          <g ClassName="mix-blend-mode:multiply">
          <path d="M482.766 441.25C480.821 439.45 469.75 428.846 464.439 404.182C457.04 369.977 443.844 362.218 443.015 361.768C444.258 361.966 468.723 366.844 475.421 395.055C479.029 410.246 481.485 425.689 482.766 441.25Z" fill="#C2D2DC"/>
          </g>
          <path d="M485.61 516.647C485.457 516.647 485.311 516.586 485.203 516.478C485.095 516.37 485.034 516.223 485.034 516.07V515.656C485.466 501.506 489.049 386.504 455.041 366.502C454.771 366.34 456.032 364.936 456.32 365.044C490.759 377.556 486.924 492.469 486.186 515.692V516.07C486.186 516.223 486.126 516.37 486.018 516.478C485.91 516.586 485.763 516.647 485.61 516.647Z" fill="url(#paint5_linear_25_777)"/>
          <path d="M530.978 377.43H530.816L530.168 377.736C530.168 377.736 516.395 384.937 508.762 420.205C503.037 446.669 490.759 457.021 490.111 457.471C490.067 457.197 490.037 456.92 490.021 456.643C489.427 451.71 486.871 426.83 492.487 404.183C497.888 382.579 512.111 373.578 530.852 377.376L530.978 377.43Z" fill="url(#paint6_linear_25_777)"/>
          <g ClassName="mix-blend-mode:multiply">
          <path d="M530.852 377.43L530.204 377.736C530.204 377.736 516.431 384.937 508.798 420.205C503.073 446.669 490.795 457.021 490.147 457.471C490.103 457.197 490.073 456.92 490.057 456.643C493.91 422.221 500.031 405.173 505.558 394.587C512.345 381.589 530.852 377.43 530.852 377.43Z" fill="#C2D2DC"/>
          </g>
          <path d="M487.321 518.033C487.168 518.033 487.021 517.972 486.913 517.864C486.805 517.756 486.745 517.61 486.745 517.457C486.493 479.507 488.311 393.975 516.917 381.409C517.224 381.283 518.484 379.608 518.61 379.969C518.736 380.329 518.826 382.129 518.52 382.255C490.543 394.551 487.663 479.741 487.915 517.439C487.917 517.516 487.904 517.593 487.876 517.665C487.848 517.737 487.806 517.802 487.753 517.858C487.699 517.913 487.634 517.957 487.563 517.987C487.492 518.017 487.416 518.033 487.339 518.033H487.321Z" fill="url(#paint7_linear_25_777)"/>
          <path d="M464.475 502.208L464.835 506.367L468.075 542.805C468.135 543.774 468.56 544.686 469.265 545.354C469.97 546.022 470.903 546.398 471.874 546.405L502.839 546.675C503.8 546.684 504.729 546.332 505.442 545.689C506.156 545.045 506.602 544.157 506.692 543.201L510.166 510.436L510.994 502.748L464.475 502.208Z" fill="url(#paint8_linear_25_777)"/>
          <g ClassName="mix-blend-mode:multiply">
          <path d="M464.889 506.367L468.075 542.805C468.135 543.774 468.56 544.686 469.265 545.354C469.97 546.022 470.903 546.398 471.874 546.405L486.6 546.531C473.224 541.131 469.966 529.321 472.684 520.211C475.637 510.346 506.89 510.4 510.166 510.436H510.454H510.166L480.677 504.081L464.889 506.367Z" fill="#DBE7EE"/>
          </g>
          <path d="M461.66 503.711L461.618 508.536C461.611 509.381 462.29 510.072 463.135 510.079L512.245 510.508C513.09 510.515 513.781 509.836 513.789 508.991L513.831 504.166C513.838 503.321 513.159 502.63 512.314 502.623L463.204 502.194C462.359 502.187 461.668 502.866 461.66 503.711Z" fill="url(#paint9_linear_25_777)"/>
          <path ClassName="mix-blend-mode:multiply" d="M157.76 456.067L434.122 456.067L434.122 179.704L157.76 179.704L157.76 456.067Z" fill="url(#paint10_linear_25_777)"/>
          <g opacity="0.15">
          <path opacity="0.15" d="M327.653 53.2159H99.988C96.7765 53.2159 94.1731 55.8193 94.1731 59.0308V206.259C94.1731 209.47 96.7765 212.073 99.988 212.073H327.653C330.864 212.073 333.468 209.47 333.468 206.259V59.0308C333.468 55.8193 330.864 53.2159 327.653 53.2159Z" fill="url(#paint11_linear_25_777)"/>
          <path opacity="0.15" d="M333.72 76.2235L94.4251 76.2235V58.2206C94.4441 56.6909 95.0651 55.2303 96.1535 54.1553C97.242 53.0803 98.7103 52.4775 100.24 52.4777L327.905 52.4777C329.447 52.4777 330.926 53.0903 332.017 54.1808C333.107 55.2713 333.72 56.7504 333.72 58.2926V76.2955V76.2235Z" fill="url(#paint12_linear_25_777)"/>
          <path opacity="0.15" d="M145.481 67.7802C147.38 67.7802 148.92 66.2408 148.92 64.3417C148.92 62.4426 147.38 60.9031 145.481 60.9031C143.582 60.9031 142.043 62.4426 142.043 64.3417C142.043 66.2408 143.582 67.7802 145.481 67.7802Z" fill="white"/>
          <path opacity="0.15" d="M129.027 67.7802C130.926 67.7802 132.465 66.2408 132.465 64.3417C132.465 62.4426 130.926 60.9031 129.027 60.9031C127.128 60.9031 125.588 62.4426 125.588 64.3417C125.588 66.2408 127.128 67.7802 129.027 67.7802Z" fill="white"/>
          <path opacity="0.15" d="M112.59 67.7802C114.489 67.7802 116.029 66.2408 116.029 64.3417C116.029 62.4426 114.489 60.9031 112.59 60.9031C110.691 60.9031 109.152 62.4426 109.152 64.3417C109.152 66.2408 110.691 67.7802 112.59 67.7802Z" fill="white"/>
          <g ClassName="mix-blend-mode:screen" opacity="0.5">
          <path ClassName="mix-blend-mode:screen" opacity="0.5" d="M183.234 93.4523H125.624V97.521H183.234V93.4523Z" fill="url(#paint13_linear_25_777)"/>
          </g>
          <path ClassName="mix-blend-mode:screen" opacity="0.5" d="M207.772 93.4523H190.003V97.521H207.772V93.4523Z" fill="url(#paint14_linear_25_777)"/>
          <g ClassName="mix-blend-mode:screen" opacity="0.15">
          <path ClassName="mix-blend-mode:screen" opacity="0.15" d="M117.127 93.4523H112.248V97.521H117.127V93.4523Z" fill="url(#paint15_linear_25_777)"/>
          </g>
          <g ClassName="mix-blend-mode:screen" opacity="0.8">
          <path ClassName="mix-blend-mode:screen" opacity="0.8" d="M287.056 93.4523H262.698V97.521H287.056V93.4523Z" fill="url(#paint16_linear_25_777)"/>
          </g>
          <g ClassName="mix-blend-mode:screen" opacity="0.5">
          <path ClassName="mix-blend-mode:screen" opacity="0.5" d="M257.459 93.4523H216.323V97.521H257.459V93.4523Z" fill="url(#paint17_linear_25_777)"/>
          </g>
          <g ClassName="mix-blend-mode:screen" opacity="0.15">
          <path ClassName="mix-blend-mode:screen" opacity="0.15" d="M193.513 170.361H190.003H125.624V174.429H190.003H193.513H207.79V170.361H193.513Z" fill="url(#paint18_linear_25_777)"/>
          <path ClassName="mix-blend-mode:screen" opacity="0.15" d="M117.127 170.361H112.248V174.429H117.127V170.361Z" fill="url(#paint19_linear_25_777)"/>
          <g ClassName="mix-blend-mode:screen" opacity="0.5">
          <path ClassName="mix-blend-mode:screen" opacity="0.5" d="M276.128 170.361H262.698V174.429H276.128V170.361Z" fill="url(#paint20_linear_25_777)"/>
          </g>
          <path ClassName="mix-blend-mode:screen" opacity="0.5" d="M257.459 170.361H216.323V174.429H257.459V170.361Z" fill="url(#paint21_linear_25_777)"/>
          </g>
          <g ClassName="mix-blend-mode:screen" opacity="0.15">
          <path ClassName="mix-blend-mode:screen" opacity="0.15" d="M137.398 106.27H125.624V110.339H137.398V106.27Z" fill="url(#paint22_linear_25_777)"/>
          <path ClassName="mix-blend-mode:screen" opacity="0.5" d="M208.942 106.27H142.547V110.339H208.942V106.27Z" fill="url(#paint23_linear_25_777)"/>
          <path ClassName="mix-blend-mode:screen" opacity="0.15" d="M117.127 106.27H112.248V110.339H117.127V106.27Z" fill="url(#paint24_linear_25_777)"/>
          <g ClassName="mix-blend-mode:screen" opacity="0.5">
          <path ClassName="mix-blend-mode:screen" opacity="0.5" d="M315.213 106.27H216.323V110.339H315.213V106.27Z" fill="url(#paint25_linear_25_777)"/>
          </g>
          </g>
          <g ClassName="mix-blend-mode:screen" opacity="0.15">
          <path ClassName="mix-blend-mode:screen" opacity="0.15" d="M137.398 183.179H125.624V187.247H137.398V183.179Z" fill="url(#paint26_linear_25_777)"/>
          <path ClassName="mix-blend-mode:screen" opacity="0.15" d="M232.795 183.179H221.021V187.247H232.795V183.179Z" fill="url(#paint27_linear_25_777)"/>
          <path ClassName="mix-blend-mode:screen" opacity="0.5" d="M208.942 183.179H142.547V187.247H208.942V183.179Z" fill="url(#paint28_linear_25_777)"/>
          <path ClassName="mix-blend-mode:screen" opacity="0.15" d="M117.127 183.179H112.248V187.247H117.127V183.179Z" fill="url(#paint29_linear_25_777)"/>
          <path ClassName="mix-blend-mode:screen" opacity="0.15" d="M315.213 183.179H243.129V187.247H315.213V183.179Z" fill="url(#paint30_linear_25_777)"/>
          </g>
          <g ClassName="mix-blend-mode:screen" opacity="0.15">
          <g ClassName="mix-blend-mode:screen" opacity="0.3">
          <path ClassName="mix-blend-mode:screen" opacity="0.3" d="M161.45 119.088H125.624V123.157H161.45V119.088Z" fill="url(#paint31_linear_25_777)"/>
          </g>
          <path ClassName="mix-blend-mode:screen" opacity="0.15" d="M183.233 119.088H165.789V123.157H183.233V119.088Z" fill="url(#paint32_linear_25_777)"/>
          <path ClassName="mix-blend-mode:screen" opacity="0.15" d="M117.127 119.088H112.248V123.157H117.127V119.088Z" fill="url(#paint33_linear_25_777)"/>
          <path ClassName="mix-blend-mode:screen" opacity="0.15" d="M245.235 119.088H191.209V123.157H245.235V119.088Z" fill="url(#paint34_linear_25_777)"/>
          <path ClassName="mix-blend-mode:screen" opacity="0.5" d="M315.213 119.088H251.123V123.157H315.213V119.088Z" fill="url(#paint35_linear_25_777)"/>
          </g>
          <g ClassName="mix-blend-mode:screen" opacity="0.15">
          <path ClassName="mix-blend-mode:screen" opacity="0.15" d="M220.59 131.906H125.624V135.975H220.59V131.906Z" fill="url(#paint36_linear_25_777)"/>
          <path ClassName="mix-blend-mode:screen" opacity="0.15" d="M117.127 131.906H112.248V135.975H117.127V131.906Z" fill="url(#paint37_linear_25_777)"/>
          <path ClassName="mix-blend-mode:screen" opacity="0.15" d="M295.68 131.906H225.576V135.975H295.68V131.906Z" fill="url(#paint38_linear_25_777)"/>
          </g>
          <g ClassName="mix-blend-mode:screen" opacity="0.15">
          <path ClassName="mix-blend-mode:screen" opacity="0.5" d="M174.376 144.725H125.624V148.793H174.376V144.725Z" fill="url(#paint39_linear_25_777)"/>
          <path ClassName="mix-blend-mode:screen" opacity="0.15" d="M117.127 144.725H112.248V148.793H117.127V144.725Z" fill="url(#paint40_linear_25_777)"/>
          <g ClassName="mix-blend-mode:screen" opacity="0.5">
          <path ClassName="mix-blend-mode:screen" opacity="0.5" d="M295.68 144.725H202.749V148.793H295.68V144.725Z" fill="url(#paint41_linear_25_777)"/>
          </g>
          <path ClassName="mix-blend-mode:screen" opacity="0.15" d="M315.213 144.725H302.683V148.793H315.213V144.725Z" fill="url(#paint42_linear_25_777)"/>
          <path ClassName="mix-blend-mode:screen" opacity="0.15" d="M193.387 144.725H180.857V148.793H193.387V144.725Z" fill="url(#paint43_linear_25_777)"/>
          </g>
          <g ClassName="mix-blend-mode:screen" opacity="0.15">
          <path ClassName="mix-blend-mode:screen" opacity="0.15" d="M150.144 157.543H125.624V161.611H150.144V157.543Z" fill="url(#paint44_linear_25_777)"/>
          <path ClassName="mix-blend-mode:screen" opacity="0.15" d="M199.58 157.543H175.06V161.611H199.58V157.543Z" fill="url(#paint45_linear_25_777)"/>
          <path ClassName="mix-blend-mode:screen" opacity="0.15" d="M117.127 157.543H112.248V161.611H117.127V157.543Z" fill="url(#paint46_linear_25_777)"/>
          <g ClassName="mix-blend-mode:screen" opacity="0.3">
          <path ClassName="mix-blend-mode:screen" opacity="0.3" d="M272.222 157.543H208.708V161.611H272.222V157.543Z" fill="url(#paint47_linear_25_777)"/>
          </g>
          <path ClassName="mix-blend-mode:screen" opacity="0.5" d="M315.195 157.543H280.593V161.611H315.195V157.543Z" fill="url(#paint48_linear_25_777)"/>
          <g ClassName="mix-blend-mode:screen" opacity="0.5">
          <path ClassName="mix-blend-mode:screen" opacity="0.5" d="M169.317 157.543H156.787V161.611H169.317V157.543Z" fill="url(#paint49_linear_25_777)"/>
          </g>
          </g>
          </g>
          <path ClassName="mix-blend-mode:multiply" d="M82.9034 306.391H116.983V272.311H82.9034V306.391Z" fill="url(#paint50_linear_25_777)"/>
          <path ClassName="mix-blend-mode:multiply" d="M464.133 245.793H558V151.926H464.133V245.793Z" fill="url(#paint51_linear_25_777)"/>
          <path d="M295.896 215.296C295.896 215.296 303.349 230.49 303.853 230.148C304.357 229.806 321.226 215.116 321.226 215.116L315.627 193.008H310.64L297.84 197.077L295.896 215.296Z" fill="#CE9789"/>
          <path d="M274.814 222.029C256.721 222.749 224.406 315.518 237.008 317.3C254.057 329.038 304.087 226.674 274.814 222.029Z" fill="#CE9789"/>
          <path d="M393.832 547.575C394.143 547.546 394.445 547.456 394.721 547.31C394.997 547.163 395.241 546.964 395.44 546.723C395.639 546.483 395.789 546.205 395.88 545.906C395.972 545.608 396.004 545.294 395.974 544.983L382.598 408.647C382.534 408.021 382.226 407.445 381.741 407.044C381.256 406.643 380.632 406.449 380.005 406.505C379.379 406.569 378.803 406.876 378.402 407.362C378.002 407.847 377.808 408.47 377.863 409.097L391.239 545.451C391.303 546.076 391.611 546.65 392.097 547.048C392.583 547.446 393.206 547.636 393.832 547.575Z" fill="url(#paint52_linear_25_777)"/>
          <path d="M347.96 547.575C348.27 547.546 348.572 547.456 348.847 547.309C349.122 547.163 349.365 546.963 349.563 546.722C349.761 546.481 349.908 546.203 349.998 545.905C350.087 545.606 350.117 545.293 350.085 544.983L336.654 408.647C336.595 408.022 336.291 407.447 335.809 407.045C335.326 406.644 334.705 406.45 334.08 406.505C333.769 406.534 333.467 406.624 333.191 406.771C332.915 406.917 332.67 407.116 332.471 407.357C332.272 407.598 332.123 407.875 332.031 408.174C331.94 408.472 331.908 408.786 331.938 409.097L345.314 545.451C345.345 545.766 345.439 546.071 345.589 546.348C345.74 546.626 345.944 546.871 346.191 547.069C346.437 547.267 346.721 547.413 347.024 547.5C347.328 547.587 347.646 547.613 347.96 547.575Z" fill="url(#paint53_linear_25_777)"/>
          <path d="M236.288 547.575C235.977 547.546 235.675 547.456 235.399 547.31C235.123 547.163 234.879 546.964 234.68 546.723C234.481 546.483 234.331 546.205 234.239 545.906C234.148 545.608 234.116 545.294 234.146 544.983L247.522 408.647C247.581 408.022 247.885 407.447 248.368 407.045C248.85 406.644 249.471 406.45 250.096 406.505C250.407 406.534 250.71 406.624 250.986 406.771C251.262 406.917 251.506 407.116 251.705 407.357C251.904 407.598 252.054 407.875 252.145 408.174C252.237 408.472 252.269 408.786 252.239 409.097L238.863 545.451C238.833 545.76 238.743 546.06 238.598 546.333C238.453 546.607 238.255 546.85 238.016 547.047C237.777 547.244 237.501 547.393 237.205 547.483C236.908 547.574 236.597 547.605 236.288 547.575Z" fill="url(#paint54_linear_25_777)"/>
          <path d="M295.248 547.575C294.937 547.546 294.635 547.456 294.359 547.31C294.083 547.163 293.838 546.964 293.639 546.723C293.44 546.483 293.291 546.205 293.199 545.906C293.107 545.608 293.076 545.294 293.105 544.983L306.481 408.647C306.511 408.336 306.601 408.034 306.747 407.758C306.894 407.482 307.093 407.237 307.334 407.038C307.574 406.839 307.852 406.69 308.151 406.598C308.449 406.507 308.763 406.475 309.074 406.505C309.384 406.534 309.686 406.624 309.961 406.771C310.236 406.917 310.479 407.117 310.677 407.358C310.874 407.599 311.022 407.877 311.112 408.175C311.201 408.474 311.231 408.787 311.198 409.097L297.822 545.451C297.793 545.76 297.703 546.06 297.558 546.333C297.412 546.607 297.214 546.85 296.975 547.047C296.736 547.244 296.461 547.393 296.164 547.483C295.868 547.574 295.556 547.605 295.248 547.575Z" fill="url(#paint55_linear_25_777)"/>
          <path d="M234.038 410.303C234.038 411.977 234.368 413.635 235.008 415.181C235.649 416.728 236.587 418.133 237.771 419.316C238.955 420.5 240.36 421.439 241.906 422.079C243.453 422.72 245.11 423.049 246.784 423.049H387.351C389.025 423.052 390.684 422.724 392.231 422.084C393.779 421.444 395.185 420.506 396.369 419.322C397.553 418.137 398.492 416.731 399.131 415.184C399.771 413.636 400.099 411.978 400.097 410.303C400.102 409.146 399.938 407.993 399.611 406.883C398.866 404.204 397.264 401.843 395.05 400.162C392.835 398.481 390.131 397.572 387.351 397.575H246.802C243.426 397.577 240.189 398.917 237.8 401.302C236.249 402.846 235.132 404.771 234.56 406.883C234.22 407.992 234.044 409.144 234.038 410.303Z" fill="url(#paint56_linear_25_777)"/>
          <path d="M234.542 406.883C235.286 409.562 236.888 411.922 239.103 413.604C241.317 415.285 244.021 416.193 246.802 416.19H387.368C390.744 416.189 393.981 414.849 396.37 412.464C397.921 410.92 399.038 408.995 399.61 406.883C398.866 404.204 397.264 401.843 395.05 400.162C392.835 398.481 390.131 397.572 387.35 397.575H246.802C243.426 397.577 240.189 398.917 237.8 401.302C236.243 402.844 235.119 404.769 234.542 406.883Z" fill="url(#paint57_linear_25_777)"/>
          <path d="M403.499 325.222C403.499 363.298 391.977 394.173 350.463 394.173C310.982 394.173 297.426 363.298 297.426 325.222C297.426 287.146 294.114 221.903 350.463 221.903C408.666 221.903 403.499 287.128 403.499 325.222Z" fill="url(#paint58_linear_25_777)"/>
          <path d="M395.614 325.222C395.614 363.298 384.092 394.173 342.577 394.173C303.097 394.173 289.559 363.298 289.559 325.222C289.559 287.146 286.246 221.903 342.577 221.903C400.781 221.903 395.614 287.128 395.614 325.222Z" fill="url(#paint59_linear_25_777)"/>
          <path d="M315.429 369.023C320.524 391.166 297.192 385.675 278.127 386.233C247.864 386.053 191.227 400.114 184.242 389.834C167.067 361.858 298.776 343.278 305.923 350.408C309.218 353.72 312.747 361.839 315.429 369.023Z" fill="#CE9789"/>
          <path d="M186.798 377.16C208.978 361.533 206.295 491.893 200.138 521.543C193.981 551.194 187.932 506.205 183.936 458.749C179.939 411.294 178.067 383.317 186.798 377.16Z" fill="#CE9789"/>
          <path d="M207.501 514.432L205.467 529.807L186.276 529.681L186.024 513.928L207.501 514.432Z" fill="#CE9789"/>
          <path d="M186.348 529.879C186.348 529.879 183.666 536.486 172.252 545.181C160.838 553.877 157.85 551.986 157.58 555.227C157.309 558.467 204.981 555.659 204.981 555.659L205.503 529.825C205.503 529.825 186.348 529.249 186.348 529.879Z" fill="#8759FF"/>
          <path d="M183.63 517.565L209.554 517.745C209.554 517.745 218.555 444.671 215.243 411.113C215.243 411.113 256.83 407.981 288.749 404.434C291.899 404.092 294.942 403.732 297.858 403.372C301.693 402.904 305.293 402.436 308.516 401.968C339.013 397.557 355.539 396.567 348.932 360.291L328.409 350.048L324.808 348.247C313.089 342.396 301.405 336.563 300.487 336.221C298.794 335.555 270.17 349.111 270.17 349.111C270.17 349.111 191.875 358.257 180.695 376.548C169.515 394.839 183.63 517.565 183.63 517.565Z" fill="url(#paint60_linear_25_777)"/>
          <path d="M272.978 510.886L272.906 525.45L296.256 525.63L296.202 512.776L272.978 510.886Z" fill="#CE9789"/>
          <path d="M272.69 525.252C272.384 530.995 266.389 550.672 266.245 555.659C303.349 556.595 302.251 564.066 296.31 525.36L272.69 525.252Z" fill="#8759FF"/>
          <path d="M270.152 514.81L298.686 515.026C305.455 467.247 305.383 413.832 306.409 411.456C306.661 410.862 308.21 410.483 310.766 410.159C318.507 409.205 335.538 408.827 354.837 405.011C380.599 399.934 369.762 366.394 369.762 366.394L349.814 358.851L332.244 348.319C332.244 348.319 267.091 364.036 262.032 383.695C256.001 406.919 270.152 514.81 270.152 514.81Z" fill="url(#paint61_linear_25_777)"/>
          <g ClassName="mix-blend-mode:multiply">
          <path d="M310.118 409.799L310.766 410.159C318.507 409.205 335.538 408.827 354.837 405.011C380.599 399.934 369.762 366.394 369.762 366.394L349.814 358.851C350.804 360.363 361.354 377.232 353.955 389.24C346.214 401.806 322.828 409.547 310.118 409.799Z" fill="#E8E4D8"/>
          </g>
          <path d="M276.255 218.303L276.093 241.094L275.751 286.101L274.76 287.722L274.238 288.568C273.662 289.486 272.942 290.656 272.114 292.024L261.924 285.165L242.535 272.113C246.565 261.246 251.15 250.592 256.271 240.194C265.921 222.191 276.255 218.303 276.255 218.303Z" fill="url(#paint62_linear_25_777)"/>
          <g ClassName="mix-blend-mode:multiply">
          <path d="M276.093 241.094L275.751 286.101L274.76 287.722L274.238 288.568C273.662 289.486 272.942 290.656 272.114 292.024L261.924 285.165C262.284 272.563 262.086 266.856 261.924 257.009C262.129 248.94 263.209 240.918 265.147 233.083L276.093 241.094Z" fill="#E8E4D8"/>
          </g>
          <path d="M295.896 214.072C291.666 214.444 287.459 215.045 283.294 215.872C273.932 217.87 267.811 222.515 264.697 233.983C260.628 248.889 270.098 349.201 270.098 349.201C337.699 342 362.092 369.005 368.195 367.492C374.298 365.98 372.768 363.424 368.718 338.526C364.667 313.628 359.86 246.171 356.512 231.769C353.487 218.77 338.401 215.926 329.651 215.386C325.889 215.152 321.172 214.954 321.172 214.954C321.172 214.954 298.848 229.788 295.896 214.072Z" fill="#8759FF"/>
          <g ClassName="mix-blend-mode:multiply">
          <path d="M338.004 250.834C338.004 250.834 351.543 288.748 353.073 293.321C354.603 297.893 353.757 301.62 346.97 304.5C340.183 307.381 357.646 312.638 357.988 311.701C358.33 310.765 380.869 291.016 379.591 289.846C378.313 288.676 338.004 250.834 338.004 250.834Z" fill="#E8E4D8"/>
          </g>
          <path d="M344.036 225.774C331.974 239.276 376.225 326.95 386.27 319.137C406.524 315.122 367.781 207.987 344.036 225.774Z" fill="#CE9789"/>
          <path d="M383.552 270.529C383.552 270.529 398.116 307.129 391.851 315.266C385.586 323.403 325.438 328.48 325.438 328.48L322.882 311.539C322.882 311.539 364.649 301.278 364.793 300.648C364.937 300.017 354.657 281.961 354.657 281.961L383.552 270.529Z" fill="#CE9789"/>
          <path d="M293.537 172.071L308.588 165.626L320.848 176.032C320.848 176.032 320.848 179.326 320.56 183.521C321.676 184.403 322.9 185.465 322.882 185.825C321.802 189.371 320.472 192.836 318.903 196.195C317.103 203.396 308.606 210.363 303.151 210.273C295.23 210.147 294.636 201.524 293.429 194.755C292.223 187.986 293.537 172.071 293.537 172.071Z" fill="#D8A29A"/>
          <path d="M322.018 193.224C323.818 189.624 325.042 185.663 325.618 177.67C325.979 172.431 324.844 166.094 320.812 163.754C316.779 161.413 313.106 162.277 310.172 159.487C308.962 158.233 307.392 157.386 305.679 157.064C303.966 156.741 302.196 156.959 300.612 157.687C297.228 159.019 296.508 163.592 293.213 163.664C289.919 163.736 284.428 172.053 292.997 175.726C293.879 176.104 295.842 174.285 295.842 174.285C299.628 175.531 303.594 176.139 307.58 176.086C310.095 175.948 312.588 175.537 315.015 174.861L315.699 185.915C315.699 185.915 319.642 182.315 321.1 184.835C321.928 186.383 318.471 197.203 317.499 199.921C316.851 201.686 321.1 195.025 322.018 193.224Z" fill="url(#paint63_linear_25_777)"/>
          <path d="M393.094 311.125C393.031 312.562 392.599 313.958 391.839 315.179C391.079 316.399 390.016 317.403 388.755 318.093C369.132 329.38 282.322 330.803 284.77 324.7C284.644 320.037 393.382 289.36 393.094 311.125Z" fill="#CE9789"/>
          <path d="M297.246 319.461L298.128 318.687L295.752 317.462L291.539 315.518C290.456 315.026 289.27 314.804 288.082 314.87L283.078 316.454C283.078 316.454 282.303 317.876 285.292 317.732C286.284 317.866 287.226 318.25 288.028 318.849L285.112 319.389L278.595 320.757C276.794 321.207 278.703 329.578 282.195 330.1L283.996 330.478C286.552 330.64 288.514 331.235 290.945 330.478L297.372 327.58L297.246 319.461Z" fill="#CE9789"/>
          <path d="M353.991 284.247C347.816 272.995 340.057 258.089 338.004 250.762C338.004 250.762 324.448 222.893 334.53 218.356C336.259 217.485 338.175 217.052 340.111 217.096C350.426 219.599 361.192 227.052 368.447 237.548C373.29 244.533 379.735 257.351 385.082 270.727L353.991 284.247Z" fill="url(#paint64_linear_25_777)"/>
          <path d="M430.414 545.406C430.536 546.713 431.695 547.673 433.001 547.551C434.308 547.429 435.269 546.271 435.147 544.965L416.198 341.856C416.076 340.549 414.918 339.588 413.611 339.71C412.304 339.832 411.343 340.99 411.465 342.297L430.414 545.406Z" fill="url(#paint65_linear_25_777)"/>
          <path d="M82.2367 341.853L63.2876 544.961C63.1657 546.268 64.1263 547.426 65.433 547.548C66.7398 547.67 67.8979 546.71 68.0199 545.403L86.969 342.294C87.0909 340.987 86.1304 339.829 84.8236 339.707C83.5169 339.585 82.3587 340.546 82.2367 341.853Z" fill="url(#paint66_linear_25_777)"/>
          <path d="M432.142 327.76H66.2867C62.1704 327.76 58.8335 331.097 58.8335 335.213C58.8335 339.33 62.1704 342.666 66.2867 342.666H432.142C436.258 342.666 439.595 339.33 439.595 335.213C439.595 331.097 436.258 327.76 432.142 327.76Z" fill="url(#paint67_linear_25_777)"/>
          <path d="M293.015 327.76H223.38V323.421H288.677C289.247 323.419 289.812 323.53 290.34 323.747C290.867 323.964 291.347 324.283 291.75 324.687C292.153 325.09 292.473 325.569 292.69 326.097C292.907 326.624 293.018 327.19 293.015 327.76Z" fill="url(#paint68_linear_25_777)"/>
          <path d="M167.985 327.76H257.334L248.764 272.833C248.644 272.064 248.254 271.362 247.664 270.854C247.073 270.345 246.321 270.064 245.542 270.061H162.728C162.255 270.06 161.787 270.162 161.358 270.36C160.928 270.558 160.545 270.846 160.238 271.205C159.93 271.564 159.703 271.986 159.574 272.441C159.444 272.896 159.415 273.374 159.488 273.841L167.985 327.76Z" fill="url(#paint69_linear_25_777)"/>
          <path d="M238.988 95.9186H11.3237C8.11223 95.9186 5.50879 98.522 5.50879 101.734V248.961C5.50879 252.173 8.11223 254.776 11.3237 254.776H238.988C242.2 254.776 244.803 252.173 244.803 248.961V101.734C244.803 98.522 242.2 95.9186 238.988 95.9186Z" fill="#5C1FFA"/>
          <path d="M245.056 118.944L5.76097 118.944V100.942C5.76097 99.3993 6.37361 97.9202 7.46413 96.8297C8.55463 95.7392 10.0337 95.1266 11.5759 95.1266L239.241 95.1266C240.007 95.1266 240.766 95.2782 241.474 95.5726C242.182 95.8671 242.825 96.2987 243.365 96.8424C243.906 97.3862 244.333 98.0315 244.623 98.7412C244.913 99.4508 245.06 100.211 245.056 100.978V118.98V118.944Z" fill="#5E72EA"/>
          <path d="M56.8172 110.483C58.7163 110.483 60.2558 108.943 60.2558 107.044C60.2558 105.145 58.7163 103.606 56.8172 103.606C54.9182 103.606 53.3787 105.145 53.3787 107.044C53.3787 108.943 54.9182 110.483 56.8172 110.483Z" fill="white"/>
          <path d="M40.3804 110.483C42.2795 110.483 43.819 108.943 43.819 107.044C43.819 105.145 42.2795 103.606 40.3804 103.606C38.4814 103.606 36.9419 105.145 36.9419 107.044C36.9419 108.943 38.4814 110.483 40.3804 110.483Z" fill="white"/>
          <path d="M23.9259 110.483C25.8249 110.483 27.3644 108.943 27.3644 107.044C27.3644 105.145 25.8249 103.606 23.9259 103.606C22.0268 103.606 20.4873 105.145 20.4873 107.044C20.4873 108.943 22.0268 110.483 23.9259 110.483Z" fill="white"/>
          <g ClassName="mix-blend-mode:screen" opacity="0.5">
          <path ClassName="mix-blend-mode:screen" opacity="0.5" d="M94.5692 136.173H36.96V140.242H94.5692V136.173Z" fill="url(#paint70_linear_25_777)"/>
          </g>
          <path ClassName="mix-blend-mode:screen" opacity="0.5" d="M119.125 136.173H101.356V140.242H119.125V136.173Z" fill="url(#paint71_linear_25_777)"/>
          <g ClassName="mix-blend-mode:screen">
          <path ClassName="mix-blend-mode:screen" d="M28.4806 136.173H23.6018V140.242H28.4806V136.173Z" fill="url(#paint72_linear_25_777)"/>
          </g>
          <g ClassName="mix-blend-mode:screen" opacity="0.8">
          <path ClassName="mix-blend-mode:screen" opacity="0.8" d="M198.392 136.173H174.034V140.242H198.392V136.173Z" fill="url(#paint73_linear_25_777)"/>
          </g>
          <g ClassName="mix-blend-mode:screen" opacity="0.5">
          <path ClassName="mix-blend-mode:screen" opacity="0.5" d="M168.795 136.173H127.659V140.242H168.795V136.173Z" fill="url(#paint74_linear_25_777)"/>
          </g>
          <g ClassName="mix-blend-mode:screen">
          <path ClassName="mix-blend-mode:screen" d="M104.867 213.064H101.356H36.96V217.132H101.356H104.867H119.125V213.064H104.867Z" fill="url(#paint75_linear_25_777)"/>
          <path ClassName="mix-blend-mode:screen" d="M28.4806 213.064H23.6018V217.132H28.4806V213.064Z" fill="url(#paint76_linear_25_777)"/>
          <g ClassName="mix-blend-mode:screen" opacity="0.5">
          <path ClassName="mix-blend-mode:screen" opacity="0.5" d="M187.464 213.064H174.034V217.132H187.464V213.064Z" fill="url(#paint77_linear_25_777)"/>
          </g>
          <path ClassName="mix-blend-mode:screen" opacity="0.5" d="M168.795 213.064H127.659V217.132H168.795V213.064Z" fill="url(#paint78_linear_25_777)"/>
          </g>
          <g ClassName="mix-blend-mode:screen">
          <path ClassName="mix-blend-mode:screen" d="M48.7339 148.973H36.96V153.042H48.7339V148.973Z" fill="url(#paint79_linear_25_777)"/>
          <path ClassName="mix-blend-mode:screen" opacity="0.5" d="M120.278 148.973H53.8828V153.042H120.278V148.973Z" fill="url(#paint80_linear_25_777)"/>
          <path ClassName="mix-blend-mode:screen" d="M28.4806 148.973H23.6018V153.042H28.4806V148.973Z" fill="url(#paint81_linear_25_777)"/>
          <g ClassName="mix-blend-mode:screen" opacity="0.5">
          <path ClassName="mix-blend-mode:screen" opacity="0.5" d="M226.549 148.973H127.659V153.042H226.549V148.973Z" fill="url(#paint82_linear_25_777)"/>
          </g>
          </g>
          <g ClassName="mix-blend-mode:screen">
          <path ClassName="mix-blend-mode:screen" d="M48.7339 225.882H36.96V229.95H48.7339V225.882Z" fill="url(#paint83_linear_25_777)"/>
          <path ClassName="mix-blend-mode:screen" d="M144.131 225.882H132.357V229.95H144.131V225.882Z" fill="url(#paint84_linear_25_777)"/>
          <path ClassName="mix-blend-mode:screen" opacity="0.5" d="M120.278 225.882H53.8828V229.95H120.278V225.882Z" fill="url(#paint85_linear_25_777)"/>
          <path ClassName="mix-blend-mode:screen" d="M28.4806 225.882H23.6018V229.95H28.4806V225.882Z" fill="url(#paint86_linear_25_777)"/>
          <path ClassName="mix-blend-mode:screen" d="M226.548 225.882H154.465V229.95H226.548V225.882Z" fill="url(#paint87_linear_25_777)"/>
          </g>
          <g ClassName="mix-blend-mode:screen">
          <g ClassName="mix-blend-mode:screen" opacity="0.3">
          <path ClassName="mix-blend-mode:screen" opacity="0.3" d="M72.7857 161.791H36.96V165.86H72.7857V161.791Z" fill="url(#paint88_linear_25_777)"/>
          </g>
          <path ClassName="mix-blend-mode:screen" d="M94.5693 161.791H77.1245V165.86H94.5693V161.791Z" fill="url(#paint89_linear_25_777)"/>
          <path ClassName="mix-blend-mode:screen" d="M28.4806 161.791H23.6018V165.86H28.4806V161.791Z" fill="url(#paint90_linear_25_777)"/>
          <path ClassName="mix-blend-mode:screen" d="M156.589 161.791H102.562V165.86H156.589V161.791Z" fill="url(#paint91_linear_25_777)"/>
          <path ClassName="mix-blend-mode:screen" opacity="0.5" d="M226.549 161.791H162.458V165.86H226.549V161.791Z" fill="url(#paint92_linear_25_777)"/>
          </g>
          <g ClassName="mix-blend-mode:screen">
          <path ClassName="mix-blend-mode:screen" d="M131.925 174.609H36.96V178.678H131.925V174.609Z" fill="url(#paint93_linear_25_777)"/>
          <path ClassName="mix-blend-mode:screen" d="M28.4806 174.609H23.6018V178.678H28.4806V174.609Z" fill="url(#paint94_linear_25_777)"/>
          <path ClassName="mix-blend-mode:screen" d="M207.015 174.609H136.912V178.678H207.015V174.609Z" fill="url(#paint95_linear_25_777)"/>
          </g>
          <g ClassName="mix-blend-mode:screen">
          <path ClassName="mix-blend-mode:screen" opacity="0.5" d="M85.7118 187.428H36.96V191.496H85.7118V187.428Z" fill="url(#paint96_linear_25_777)"/>
          <path ClassName="mix-blend-mode:screen" d="M28.4806 187.427H23.6018V191.496H28.4806V187.427Z" fill="url(#paint97_linear_25_777)"/>
          <g ClassName="mix-blend-mode:screen" opacity="0.5">
          <path ClassName="mix-blend-mode:screen" opacity="0.5" d="M207.015 187.428H114.084V191.496H207.015V187.428Z" fill="url(#paint98_linear_25_777)"/>
          </g>
          <path ClassName="mix-blend-mode:screen" d="M226.549 187.428H214.019V191.496H226.549V187.428Z" fill="url(#paint99_linear_25_777)"/>
          <path ClassName="mix-blend-mode:screen" d="M104.723 187.428H92.1929V191.496H104.723V187.428Z" fill="url(#paint100_linear_25_777)"/>
          </g>
          <g ClassName="mix-blend-mode:screen">
          <path ClassName="mix-blend-mode:screen" d="M61.4799 200.246H36.96V204.314H61.4799V200.246Z" fill="url(#paint101_linear_25_777)"/>
          <path ClassName="mix-blend-mode:screen" d="M110.916 200.246H86.396V204.314H110.916V200.246Z" fill="url(#paint102_linear_25_777)"/>
          <path ClassName="mix-blend-mode:screen" d="M28.4806 200.246H23.6018V204.314H28.4806V200.246Z" fill="url(#paint103_linear_25_777)"/>
          <g ClassName="mix-blend-mode:screen" opacity="0.3">
          <path ClassName="mix-blend-mode:screen" opacity="0.3" d="M183.558 200.246H120.043V204.314H183.558V200.246Z" fill="url(#paint104_linear_25_777)"/>
          </g>
          <path ClassName="mix-blend-mode:screen" opacity="0.5" d="M226.549 200.246H191.947V204.314H226.549V200.246Z" fill="url(#paint105_linear_25_777)"/>
          <g ClassName="mix-blend-mode:screen" opacity="0.5">
          <path ClassName="mix-blend-mode:screen" opacity="0.5" d="M80.6709 200.246H68.1409V204.314H80.6709V200.246Z" fill="url(#paint106_linear_25_777)"/>
          </g>
          </g>
          <path d="M375.577 223.901L516.125 223.901C518.104 223.901 519.708 222.297 519.708 220.319V129.422C519.708 127.444 518.104 125.84 516.125 125.84L375.577 125.84C373.598 125.84 371.994 127.444 371.994 129.422V220.319C371.994 222.297 373.598 223.901 375.577 223.901Z" fill="white"/>
          <path d="M519.708 140.512L372.084 140.512V129.422C372.084 128.467 372.463 127.551 373.139 126.876C373.814 126.201 374.73 125.821 375.685 125.821L516.125 125.821C517.08 125.821 517.996 126.201 518.671 126.876C519.346 127.551 519.726 128.467 519.726 129.422V140.512H519.708Z" fill="#5E72EA"/>
          <path d="M403.517 135.291C404.69 135.291 405.642 134.34 405.642 133.167C405.642 131.993 404.69 131.042 403.517 131.042C402.344 131.042 401.393 131.993 401.393 133.167C401.393 134.34 402.344 135.291 403.517 135.291Z" fill="white"/>
          <path d="M393.363 135.291C394.537 135.291 395.488 134.34 395.488 133.167C395.488 131.993 394.537 131.042 393.363 131.042C392.19 131.042 391.239 131.993 391.239 133.167C391.239 134.34 392.19 135.291 393.363 135.291Z" fill="white"/>
          <path d="M383.228 135.291C384.401 135.291 385.352 134.34 385.352 133.167C385.352 131.993 384.401 131.042 383.228 131.042C382.055 131.042 381.104 131.993 381.104 133.167C381.104 134.34 382.055 135.291 383.228 135.291Z" fill="white"/>
          <path d="M460.463 204.978C464.683 202.202 461.569 190.02 453.509 177.768C445.449 165.516 435.494 157.834 431.274 160.61C427.054 163.386 430.168 175.568 438.228 187.82C446.288 200.072 456.243 207.754 460.463 204.978Z" stroke="#7432FF" stroke-width="1.80029" stroke-miterlimit="10"/>
          <path d="M453.477 187.76C461.538 175.508 464.651 163.325 460.431 160.549C456.212 157.773 446.257 165.455 438.197 177.707C430.136 189.959 427.023 202.141 431.243 204.917C435.462 207.693 445.417 200.012 453.477 187.76Z" stroke="#7432FF" stroke-width="1.80029" stroke-miterlimit="10"/>
          <path d="M445.86 191.91C460.525 191.91 472.414 187.816 472.414 182.765C472.414 177.714 460.525 173.619 445.86 173.619C431.194 173.619 419.306 177.714 419.306 182.765C419.306 187.816 431.194 191.91 445.86 191.91Z" stroke="#7432FF" stroke-width="1.80029" stroke-miterlimit="10"/>
          <path d="M445.23 186.941C447.537 186.941 449.407 185.071 449.407 182.765C449.407 180.458 447.537 178.588 445.23 178.588C442.923 178.588 441.053 180.458 441.053 182.765C441.053 185.071 442.923 186.941 445.23 186.941Z" fill="#7432FF"/>
          <path ClassName="mix-blend-mode:screen" opacity="0.5" d="M416.497 42H377.899V44.7184H416.497V42Z" fill="url(#paint107_linear_25_777)"/>
          <path ClassName="mix-blend-mode:screen" opacity="0.5" d="M432.934 42H421.034V44.7184H432.934V42Z" fill="url(#paint108_linear_25_777)"/>
          <path ClassName="mix-blend-mode:screen" d="M372.192 42H368.934V44.7184H372.192V42Z" fill="url(#paint109_linear_25_777)"/>
          <path ClassName="mix-blend-mode:screen" opacity="0.8" d="M486.042 42H469.732V44.7184H486.042V42Z" fill="url(#paint110_linear_25_777)"/>
          <path ClassName="mix-blend-mode:screen" opacity="0.5" d="M466.221 42H438.659V44.7184H466.221V42Z" fill="url(#paint111_linear_25_777)"/>
          <path d="M423.374 93.5243H421.034H377.899V96.2427H421.034H423.374H432.934V93.5243H423.374Z" fill="url(#paint112_linear_25_777)"/>
          <path d="M372.192 93.5243H368.934V96.2427H372.192V93.5243Z" fill="url(#paint113_linear_25_777)"/>
          <path opacity="0.5" d="M478.733 93.5243H469.732V96.2427H478.733V93.5243Z" fill="url(#paint114_linear_25_777)"/>
          <path opacity="0.5" d="M466.221 93.5243H438.659V96.2427H466.221V93.5243Z" fill="url(#paint115_linear_25_777)"/>
          <path d="M385.784 50.5874H377.899V53.3058H385.784V50.5874Z" fill="url(#paint116_linear_25_777)"/>
          <path opacity="0.5" d="M433.726 50.5874H389.241V53.3058H433.726V50.5874Z" fill="url(#paint117_linear_25_777)"/>
          <path d="M372.192 50.5874H368.934V53.3058H372.192V50.5874Z" fill="url(#paint118_linear_25_777)"/>
          <path ClassName="mix-blend-mode:screen" opacity="0.5" d="M504.909 50.5874H438.659V53.3058H504.909V50.5874Z" fill="url(#paint119_linear_25_777)"/>
          <path d="M385.784 102.112H377.899V104.83H385.784V102.112Z" fill="url(#paint120_linear_25_777)"/>
          <path d="M449.695 102.112H441.809V104.83H449.695V102.112Z" fill="url(#paint121_linear_25_777)"/>
          <path opacity="0.5" d="M433.726 102.112H389.241V104.83H433.726V102.112Z" fill="url(#paint122_linear_25_777)"/>
          <path d="M372.192 102.112H368.934V104.83H372.192V102.112Z" fill="url(#paint123_linear_25_777)"/>
          <path d="M504.891 102.112H456.608V104.83H504.891V102.112Z" fill="url(#paint124_linear_25_777)"/>
          <path ClassName="mix-blend-mode:screen" opacity="0.3" d="M401.897 59.1748H377.899V61.8933H401.897V59.1748Z" fill="url(#paint125_linear_25_777)"/>
          <path d="M416.479 59.1748H404.795V61.8933H416.479V59.1748Z" fill="url(#paint126_linear_25_777)"/>
          <path d="M372.192 59.1748H368.934V61.8933H372.192V59.1748Z" fill="url(#paint127_linear_25_777)"/>
          <path d="M458.048 59.1748H421.844V61.8933H458.048V59.1748Z" fill="url(#paint128_linear_25_777)"/>
          <path opacity="0.5" d="M504.909 59.1748H461.972V61.8933H504.909V59.1748Z" fill="url(#paint129_linear_25_777)"/>
          <path d="M441.521 67.7622H377.899V70.4807H441.521V67.7622Z" fill="url(#paint130_linear_25_777)"/>
          <path d="M372.192 67.7622H368.934V70.4807H372.192V67.7622Z" fill="url(#paint131_linear_25_777)"/>
          <path d="M491.821 67.7622H444.852V70.4807H491.821V67.7622Z" fill="url(#paint132_linear_25_777)"/>
          <path opacity="0.5" d="M410.556 76.3495H377.899V79.0679H410.556V76.3495Z" fill="url(#paint133_linear_25_777)"/>
          <path d="M372.192 76.3495H368.934V79.0679H372.192V76.3495Z" fill="url(#paint134_linear_25_777)"/>
          <path opacity="0.5" d="M491.821 76.3495H429.567V79.0679H491.821V76.3495Z" fill="url(#paint135_linear_25_777)"/>
          <path d="M504.909 76.3495H496.52V79.0679H504.909V76.3495Z" fill="url(#paint136_linear_25_777)"/>
          <path d="M423.284 76.3495H414.895V79.0679H423.284V76.3495Z" fill="url(#paint137_linear_25_777)"/>
          <path d="M394.318 84.9369H377.899V87.6553H394.318V84.9369Z" fill="url(#paint138_linear_25_777)"/>
          <path d="M427.425 84.9369H411.006V87.6553H427.425V84.9369Z" fill="url(#paint139_linear_25_777)"/>
          <path d="M372.192 84.9369H368.934V87.6553H372.192V84.9369Z" fill="url(#paint140_linear_25_777)"/>
          <path opacity="0.3" d="M476.105 84.9369H433.564V87.6553H476.105V84.9369Z" fill="url(#paint141_linear_25_777)"/>
          <path opacity="0.5" d="M504.909 84.9369H481.722V87.6553H504.909V84.9369Z" fill="url(#paint142_linear_25_777)"/>
          <path opacity="0.5" d="M407.172 84.9369H398.782V87.6553H407.172V84.9369Z" fill="url(#paint143_linear_25_777)"/>
          <path d="M249.88 46.1047H213.353V78.6359H249.88V46.1047Z" fill="url(#paint144_linear_25_777)"/>
          <path d="M225.846 69.0044L219.149 64.3417V61.6232L225.846 56.9245V60.003L221.688 62.9554L225.846 65.9439V69.0044Z" fill="white"/>
          <path d="M228.007 71.1286L233.408 53.6298H235.334L229.933 71.1286H228.007Z" fill="white"/>
          <path d="M237.386 69.0044V65.9619L241.527 62.9734L237.386 60.003V56.9245L244.065 61.6232V64.3777L237.386 69.0044Z" fill="white"/>
          <path d="M25.5279 298.487H11C4.92487 298.487 0 303.412 0 309.487V320.019C0 326.094 4.92488 331.019 11 331.019H25.5279C31.603 331.019 36.5279 326.094 36.5279 320.019V309.487C36.5279 303.412 31.603 298.487 25.5279 298.487Z" fill="url(#paint145_linear_25_777)"/>
          <path d="M12.494 321.405L5.81494 316.742V313.988L12.494 309.307V312.404L8.33535 315.356L12.494 318.345V321.405Z" fill="white"/>
          <path d="M14.6543 323.493L20.0552 306.013H21.9815L16.5806 323.493H14.6543Z" fill="white"/>
          <path d="M24.0339 321.405V318.345L28.1926 315.356L24.0339 312.404V309.307L30.731 313.988V316.742L24.0339 321.405Z" fill="white"/>
          <path d="M512.292 283.743H493.764C488.794 283.743 484.764 287.772 484.764 292.743V307.274C484.764 312.245 488.794 316.274 493.764 316.274H512.292C517.263 316.274 521.292 312.245 521.292 307.274V292.743C521.292 287.772 517.263 283.743 512.292 283.743Z" fill="url(#paint146_linear_25_777)"/>
          <path d="M497.258 306.643L490.579 301.98V299.262L497.258 294.563V297.641L493.099 300.594L497.258 303.582V306.643Z" fill="white"/>
          <path d="M499.418 308.749L504.819 291.268H506.746L501.345 308.749H499.418Z" fill="white"/>
          <path d="M508.798 306.643V303.582L512.957 300.594L508.798 297.641V294.545L515.495 299.244V301.98L508.798 306.643Z" fill="white"/>
          <path d="M350.787 285.651L351.795 285.201L350.787 285.651Z" fill="url(#paint147_linear_25_777)"/>
          </g>
          <defs>
          <linearGradient id="paint0_linear_25_777" x1="448.308" y1="424.382" x2="472.666" y2="474.826" gradientUnits="userSpaceOnUse">
          <stop stop-color="#43D4C3"/>
          <stop offset="1" stop-color="#5A98FE"/>
          </linearGradient>
          <linearGradient id="paint1_linear_25_777" x1="9401.32" y1="17364.5" x2="10782.1" y2="18634.3" gradientUnits="userSpaceOnUse">
          <stop stop-color="#43D4C3"/>
          <stop offset="1" stop-color="#5A98FE"/>
          </linearGradient>
          <linearGradient id="paint2_linear_25_777" x1="16010.7" y1="11976.6" x2="15090.1" y2="13543.9" gradientUnits="userSpaceOnUse">
          <stop stop-color="#43D4C3"/>
          <stop offset="1" stop-color="#5A98FE"/>
          </linearGradient>
          <linearGradient id="paint3_linear_25_777" x1="11065.3" y1="17797" x2="9531.68" y2="18980.6" gradientUnits="userSpaceOnUse">
          <stop stop-color="#43D4C3"/>
          <stop offset="1" stop-color="#5A98FE"/>
          </linearGradient>
          <linearGradient id="paint4_linear_25_777" x1="11129.4" y1="14722.7" x2="12510" y2="17901.6" gradientUnits="userSpaceOnUse">
          <stop stop-color="#43D4C3"/>
          <stop offset="1" stop-color="#5A98FE"/>
          </linearGradient>
          <linearGradient id="paint5_linear_25_777" x1="8548.01" y1="27233.1" x2="12075.4" y2="30503.2" gradientUnits="userSpaceOnUse">
          <stop stop-color="#43D4C3"/>
          <stop offset="1" stop-color="#5A98FE"/>
          </linearGradient>
          <linearGradient id="paint6_linear_25_777" x1="12529" y1="15517.4" x2="10963.2" y2="18114.4" gradientUnits="userSpaceOnUse">
          <stop stop-color="#43D4C3"/>
          <stop offset="1" stop-color="#5A98FE"/>
          </linearGradient>
          <linearGradient id="paint7_linear_25_777" x1="9711.77" y1="26301.3" x2="6822.91" y2="28438.1" gradientUnits="userSpaceOnUse">
          <stop stop-color="#43D4C3"/>
          <stop offset="1" stop-color="#5A98FE"/>
          </linearGradient>
          <linearGradient id="paint8_linear_25_777" x1="464.529" y1="524.406" x2="511.03" y2="524.406" gradientUnits="userSpaceOnUse">
          <stop offset="0.09" stop-color="#374492"/>
          <stop offset="1" stop-color="#014DAE"/>
          </linearGradient>
          <linearGradient id="paint9_linear_25_777" x1="2505.71" y1="13937" x2="2734.38" y2="13937" gradientUnits="userSpaceOnUse">
          <stop stop-color="#43D4C3"/>
          <stop offset="1" stop-color="#5A98FE"/>
          </linearGradient>
          <linearGradient id="paint10_linear_25_777" x1="295.95" y1="196.267" x2="295.95" y2="4321.18" gradientUnits="userSpaceOnUse">
          <stop stop-color="#E2F4FF"/>
          <stop offset="1" stop-color="#D7ECFF"/>
          </linearGradient>
          <linearGradient id="paint11_linear_25_777" x1="-43524.7" y1="3106.46" x2="-43524.7" y2="14593.5" gradientUnits="userSpaceOnUse">
          <stop stop-color="#43D4C3"/>
          <stop offset="1" stop-color="#5A98FE"/>
          </linearGradient>
          <linearGradient id="paint12_linear_25_777" x1="-27587.9" y1="347.967" x2="-59394.9" y2="347.967" gradientUnits="userSpaceOnUse">
          <stop offset="0.09" stop-color="#374492"/>
          <stop offset="1" stop-color="#014DAE"/>
          </linearGradient>
          <linearGradient id="paint13_linear_25_777" x1="14197.1" y1="204.974" x2="14197.1" y2="421.549" gradientUnits="userSpaceOnUse">
          <stop stop-color="#43D4C3"/>
          <stop offset="1" stop-color="#5A98FE"/>
          </linearGradient>
          <linearGradient id="paint14_linear_25_777" x1="198.896" y1="91.346" x2="198.896" y2="187.175" gradientUnits="userSpaceOnUse">
          <stop offset="0.04" stop-color="#FFD744"/>
          <stop offset="1" stop-color="#F5C144"/>
          </linearGradient>
          <linearGradient id="paint15_linear_25_777" x1="926.686" y1="204.974" x2="926.686" y2="421.549" gradientUnits="userSpaceOnUse">
          <stop stop-color="#43D4C3"/>
          <stop offset="1" stop-color="#5A98FE"/>
          </linearGradient>
          <linearGradient id="paint16_linear_25_777" x1="7671.87" y1="204.974" x2="7671.87" y2="421.549" gradientUnits="userSpaceOnUse">
          <stop stop-color="#43D4C3"/>
          <stop offset="1" stop-color="#5A98FE"/>
          </linearGradient>
          <linearGradient id="paint17_linear_25_777" x1="12064.1" y1="204.974" x2="12064.1" y2="421.549" gradientUnits="userSpaceOnUse">
          <stop stop-color="#43D4C3"/>
          <stop offset="1" stop-color="#5A98FE"/>
          </linearGradient>
          <linearGradient id="paint18_linear_25_777" x1="20881" y1="281.882" x2="20881" y2="498.456" gradientUnits="userSpaceOnUse">
          <stop stop-color="#43D4C3"/>
          <stop offset="1" stop-color="#5A98FE"/>
          </linearGradient>
          <linearGradient id="paint19_linear_25_777" x1="926.686" y1="281.882" x2="926.686" y2="498.456" gradientUnits="userSpaceOnUse">
          <stop stop-color="#43D4C3"/>
          <stop offset="1" stop-color="#5A98FE"/>
          </linearGradient>
          <linearGradient id="paint20_linear_25_777" x1="4175.06" y1="281.882" x2="4175.06" y2="498.456" gradientUnits="userSpaceOnUse">
          <stop stop-color="#43D4C3"/>
          <stop offset="1" stop-color="#5A98FE"/>
          </linearGradient>
          <linearGradient id="paint21_linear_25_777" x1="12358.6" y1="281.882" x2="12358.6" y2="498.456" gradientUnits="userSpaceOnUse">
          <stop offset="0.04" stop-color="#FFD744"/>
          <stop offset="1" stop-color="#F5C144"/>
          </linearGradient>
          <linearGradient id="paint22_linear_25_777" x1="2617.29" y1="217.792" x2="2617.29" y2="434.367" gradientUnits="userSpaceOnUse">
          <stop stop-color="#43D4C3"/>
          <stop offset="1" stop-color="#5A98FE"/>
          </linearGradient>
          <linearGradient id="paint23_linear_25_777" x1="175.744" y1="91.3459" x2="175.744" y2="187.175" gradientUnits="userSpaceOnUse">
          <stop stop-color="#9972FF"/>
          <stop offset="1" stop-color="#7F85FF"/>
          </linearGradient>
          <linearGradient id="paint24_linear_25_777" x1="926.686" y1="217.792" x2="926.686" y2="434.367" gradientUnits="userSpaceOnUse">
          <stop stop-color="#43D4C3"/>
          <stop offset="1" stop-color="#5A98FE"/>
          </linearGradient>
          <linearGradient id="paint25_linear_25_777" x1="30697.3" y1="217.792" x2="30697.3" y2="434.367" gradientUnits="userSpaceOnUse">
          <stop stop-color="#43D4C3"/>
          <stop offset="1" stop-color="#5A98FE"/>
          </linearGradient>
          <linearGradient id="paint26_linear_25_777" x1="2617.29" y1="294.701" x2="2617.29" y2="511.276" gradientUnits="userSpaceOnUse">
          <stop stop-color="#43D4C3"/>
          <stop offset="1" stop-color="#5A98FE"/>
          </linearGradient>
          <linearGradient id="paint27_linear_25_777" x1="3336.59" y1="294.701" x2="3336.59" y2="511.276" gradientUnits="userSpaceOnUse">
          <stop stop-color="#43D4C3"/>
          <stop offset="1" stop-color="#5A98FE"/>
          </linearGradient>
          <linearGradient id="paint28_linear_25_777" x1="175.744" y1="91.3459" x2="175.744" y2="187.175" gradientUnits="userSpaceOnUse">
          <stop stop-color="#9972FF"/>
          <stop offset="1" stop-color="#7F85FF"/>
          </linearGradient>
          <linearGradient id="paint29_linear_25_777" x1="926.686" y1="294.701" x2="926.686" y2="511.275" gradientUnits="userSpaceOnUse">
          <stop stop-color="#43D4C3"/>
          <stop offset="1" stop-color="#5A98FE"/>
          </linearGradient>
          <linearGradient id="paint30_linear_25_777" x1="22918.8" y1="294.701" x2="22918.8" y2="511.276" gradientUnits="userSpaceOnUse">
          <stop stop-color="#43D4C3"/>
          <stop offset="1" stop-color="#5A98FE"/>
          </linearGradient>
          <linearGradient id="paint31_linear_25_777" x1="8548.24" y1="230.61" x2="8548.24" y2="447.185" gradientUnits="userSpaceOnUse">
          <stop stop-color="#43D4C3"/>
          <stop offset="1" stop-color="#5A98FE"/>
          </linearGradient>
          <linearGradient id="paint32_linear_25_777" x1="4416" y1="230.61" x2="4416" y2="447.185" gradientUnits="userSpaceOnUse">
          <stop stop-color="#43D4C3"/>
          <stop offset="1" stop-color="#5A98FE"/>
          </linearGradient>
          <linearGradient id="paint33_linear_25_777" x1="926.686" y1="230.61" x2="926.686" y2="447.185" gradientUnits="userSpaceOnUse">
          <stop stop-color="#43D4C3"/>
          <stop offset="1" stop-color="#5A98FE"/>
          </linearGradient>
          <linearGradient id="paint34_linear_25_777" x1="15284" y1="230.61" x2="15284" y2="447.185" gradientUnits="userSpaceOnUse">
          <stop stop-color="#43D4C3"/>
          <stop offset="1" stop-color="#5A98FE"/>
          </linearGradient>
          <linearGradient id="paint35_linear_25_777" x1="20815.8" y1="230.61" x2="20815.8" y2="447.185" gradientUnits="userSpaceOnUse">
          <stop offset="0.04" stop-color="#FFD744"/>
          <stop offset="1" stop-color="#F5C144"/>
          </linearGradient>
          <linearGradient id="paint36_linear_25_777" x1="24498.4" y1="243.428" x2="24498.4" y2="460.003" gradientUnits="userSpaceOnUse">
          <stop stop-color="#43D4C3"/>
          <stop offset="1" stop-color="#5A98FE"/>
          </linearGradient>
          <linearGradient id="paint37_linear_25_777" x1="926.686" y1="243.428" x2="926.686" y2="460.003" gradientUnits="userSpaceOnUse">
          <stop stop-color="#43D4C3"/>
          <stop offset="1" stop-color="#5A98FE"/>
          </linearGradient>
          <linearGradient id="paint38_linear_25_777" x1="21548.1" y1="243.428" x2="21548.1" y2="460.003" gradientUnits="userSpaceOnUse">
          <stop stop-color="#43D4C3"/>
          <stop offset="1" stop-color="#5A98FE"/>
          </linearGradient>
          <linearGradient id="paint39_linear_25_777" x1="12162.9" y1="256.246" x2="12162.9" y2="472.821" gradientUnits="userSpaceOnUse">
          <stop offset="0.04" stop-color="#FFD744"/>
          <stop offset="1" stop-color="#F5C144"/>
          </linearGradient>
          <linearGradient id="paint40_linear_25_777" x1="926.686" y1="256.246" x2="926.686" y2="472.821" gradientUnits="userSpaceOnUse">
          <stop stop-color="#43D4C3"/>
          <stop offset="1" stop-color="#5A98FE"/>
          </linearGradient>
          <linearGradient id="paint41_linear_25_777" x1="27975.3" y1="256.246" x2="27975.3" y2="472.821" gradientUnits="userSpaceOnUse">
          <stop stop-color="#43D4C3"/>
          <stop offset="1" stop-color="#5A98FE"/>
          </linearGradient>
          <linearGradient id="paint42_linear_25_777" x1="4208.23" y1="256.246" x2="4208.23" y2="472.821" gradientUnits="userSpaceOnUse">
          <stop stop-color="#43D4C3"/>
          <stop offset="1" stop-color="#5A98FE"/>
          </linearGradient>
          <linearGradient id="paint43_linear_25_777" x1="3238.38" y1="256.246" x2="3238.38" y2="472.821" gradientUnits="userSpaceOnUse">
          <stop stop-color="#43D4C3"/>
          <stop offset="1" stop-color="#5A98FE"/>
          </linearGradient>
          <linearGradient id="paint44_linear_25_777" x1="5720.32" y1="269.065" x2="5720.32" y2="485.639" gradientUnits="userSpaceOnUse">
          <stop stop-color="#43D4C3"/>
          <stop offset="1" stop-color="#5A98FE"/>
          </linearGradient>
          <linearGradient id="paint45_linear_25_777" x1="6443.07" y1="269.065" x2="6443.07" y2="485.639" gradientUnits="userSpaceOnUse">
          <stop stop-color="#43D4C3"/>
          <stop offset="1" stop-color="#5A98FE"/>
          </linearGradient>
          <linearGradient id="paint46_linear_25_777" x1="926.686" y1="269.065" x2="926.686" y2="485.639" gradientUnits="userSpaceOnUse">
          <stop stop-color="#43D4C3"/>
          <stop offset="1" stop-color="#5A98FE"/>
          </linearGradient>
          <linearGradient id="paint47_linear_25_777" x1="18788.1" y1="269.065" x2="18788.1" y2="485.639" gradientUnits="userSpaceOnUse">
          <stop stop-color="#43D4C3"/>
          <stop offset="1" stop-color="#5A98FE"/>
          </linearGradient>
          <linearGradient id="paint48_linear_25_777" x1="11666.6" y1="269.065" x2="11666.6" y2="485.639" gradientUnits="userSpaceOnUse">
          <stop stop-color="#9972FF"/>
          <stop offset="1" stop-color="#7F85FF"/>
          </linearGradient>
          <linearGradient id="paint49_linear_25_777" x1="3046.91" y1="269.065" x2="3046.91" y2="485.639" gradientUnits="userSpaceOnUse">
          <stop stop-color="#43D4C3"/>
          <stop offset="1" stop-color="#5A98FE"/>
          </linearGradient>
          <linearGradient id="paint50_linear_25_777" x1="-7956.88" y1="4670.59" x2="-7956.88" y2="14300.8" gradientUnits="userSpaceOnUse">
          <stop stop-color="#E2F4FF"/>
          <stop offset="1" stop-color="#D7ECFF"/>
          </linearGradient>
          <linearGradient id="paint51_linear_25_777" x1="-1671.05" y1="6176.32" x2="-1671.05" y2="79234.1" gradientUnits="userSpaceOnUse">
          <stop stop-color="#E2F4FF"/>
          <stop offset="1" stop-color="#D7ECFF"/>
          </linearGradient>
          <linearGradient id="paint52_linear_25_777" x1="386.918" y1="525.198" x2="386.918" y2="418.117" gradientUnits="userSpaceOnUse">
          <stop stop-color="#294698"/>
          <stop offset="1" stop-color="#0E4BA6"/>
          </linearGradient>
          <linearGradient id="paint53_linear_25_777" x1="2387.01" y1="38276.8" x2="2387.01" y2="29884.4" gradientUnits="userSpaceOnUse">
          <stop stop-color="#294698"/>
          <stop offset="1" stop-color="#0E4BA6"/>
          </linearGradient>
          <linearGradient id="paint54_linear_25_777" x1="3267.42" y1="38275.3" x2="3267.42" y2="29883.2" gradientUnits="userSpaceOnUse">
          <stop stop-color="#294698"/>
          <stop offset="1" stop-color="#0E4BA6"/>
          </linearGradient>
          <linearGradient id="paint55_linear_25_777" x1="2733.38" y1="38275.7" x2="2733.38" y2="29883.5" gradientUnits="userSpaceOnUse">
          <stop stop-color="#294698"/>
          <stop offset="1" stop-color="#0E4BA6"/>
          </linearGradient>
          <linearGradient id="paint56_linear_25_777" x1="-20680.9" y1="5382.61" x2="-20680.9" y2="5748.16" gradientUnits="userSpaceOnUse">
          <stop stop-color="#43D4C3"/>
          <stop offset="1" stop-color="#5A98FE"/>
          </linearGradient>
          <linearGradient id="paint57_linear_25_777" x1="-12987.8" y1="4170.47" x2="-28124.6" y2="4170.47" gradientUnits="userSpaceOnUse">
          <stop stop-color="#43D4C3"/>
          <stop offset="1" stop-color="#5A98FE"/>
          </linearGradient>
          <linearGradient id="paint58_linear_25_777" x1="-10229.9" y1="25578.3" x2="-8335.42" y2="25504.1" gradientUnits="userSpaceOnUse">
          <stop stop-color="#43D4C3"/>
          <stop offset="1" stop-color="#5A98FE"/>
          </linearGradient>
          <linearGradient id="paint59_linear_25_777" x1="-8737.6" y1="25679.9" x2="-15429.8" y2="25679.9" gradientUnits="userSpaceOnUse">
          <stop stop-color="#43D4C3"/>
          <stop offset="1" stop-color="#5A98FE"/>
          </linearGradient>
          <linearGradient id="paint60_linear_25_777" x1="182.64" y1="479.506" x2="297.156" y2="342.702" gradientUnits="userSpaceOnUse">
          <stop stop-color="#294698"/>
          <stop offset="1" stop-color="#0F3B82"/>
          </linearGradient>
          <linearGradient id="paint61_linear_25_777" x1="14402.8" y1="29650.4" x2="14402.8" y2="43168.7" gradientUnits="userSpaceOnUse">
          <stop stop-color="#294698"/>
          <stop offset="1" stop-color="#0E4BA6"/>
          </linearGradient>
          <linearGradient id="paint62_linear_25_777" x1="5100.83" y1="7652.42" x2="5100.83" y2="10994.2" gradientUnits="userSpaceOnUse">
          <stop stop-color="#9972FF"/>
          <stop offset="1" stop-color="#7F85FF"/>
          </linearGradient>
          <linearGradient id="paint63_linear_25_777" x1="-4239.81" y1="3511.56" x2="-5008.1" y2="3526.93" gradientUnits="userSpaceOnUse">
          <stop stop-color="#294698"/>
          <stop offset="1" stop-color="#0E4BA6"/>
          </linearGradient>
          <linearGradient id="paint64_linear_25_777" x1="11123.5" y1="6938.53" x2="11123.5" y2="9730.12" gradientUnits="userSpaceOnUse">
          <stop stop-color="#9972FF"/>
          <stop offset="1" stop-color="#7F85FF"/>
          </linearGradient>
          <linearGradient id="paint65_linear_25_777" x1="-89.4811" y1="33740.5" x2="-4.97815" y2="59599.2" gradientUnits="userSpaceOnUse">
          <stop stop-color="#294698"/>
          <stop offset="1" stop-color="#0E4BA6"/>
          </linearGradient>
          <linearGradient id="paint66_linear_25_777" x1="-54091.9" y1="1024.74" x2="-54093.9" y2="1613.5" gradientUnits="userSpaceOnUse">
          <stop stop-color="#294698"/>
          <stop offset="1" stop-color="#0E4BA6"/>
          </linearGradient>
          <linearGradient id="paint67_linear_25_777" x1="62545.6" y1="2701.16" x2="62545.6" y2="4544.04" gradientUnits="userSpaceOnUse">
          <stop stop-color="#294698"/>
          <stop offset="1" stop-color="#0E4BA6"/>
          </linearGradient>
          <linearGradient id="paint68_linear_25_777" x1="-10780.7" y1="1006.86" x2="-9741.01" y2="1006.86" gradientUnits="userSpaceOnUse">
          <stop stop-color="#43D4C3"/>
          <stop offset="1" stop-color="#5A98FE"/>
          </linearGradient>
          <linearGradient id="paint69_linear_25_777" x1="18440.4" y1="7651.53" x2="18440.4" y2="9480.02" gradientUnits="userSpaceOnUse">
          <stop stop-color="#294698"/>
          <stop offset="1" stop-color="#0F3B82"/>
          </linearGradient>
          <linearGradient id="paint70_linear_25_777" x1="11271.2" y1="344.204" x2="11271.2" y2="560.778" gradientUnits="userSpaceOnUse">
          <stop stop-color="#43D4C3"/>
          <stop offset="1" stop-color="#5A98FE"/>
          </linearGradient>
          <linearGradient id="paint71_linear_25_777" x1="4096.15" y1="344.204" x2="4096.15" y2="560.778" gradientUnits="userSpaceOnUse">
          <stop offset="0.04" stop-color="#FFD744"/>
          <stop offset="1" stop-color="#F5C144"/>
          </linearGradient>
          <linearGradient id="paint72_linear_25_777" x1="597.76" y1="344.204" x2="597.76" y2="560.778" gradientUnits="userSpaceOnUse">
          <stop stop-color="#43D4C3"/>
          <stop offset="1" stop-color="#5A98FE"/>
          </linearGradient>
          <linearGradient id="paint73_linear_25_777" x1="6383.82" y1="344.204" x2="6383.82" y2="560.778" gradientUnits="userSpaceOnUse">
          <stop stop-color="#43D4C3"/>
          <stop offset="1" stop-color="#5A98FE"/>
          </linearGradient>
          <linearGradient id="paint74_linear_25_777" x1="9949.47" y1="344.204" x2="9949.47" y2="560.778" gradientUnits="userSpaceOnUse">
          <stop stop-color="#43D4C3"/>
          <stop offset="1" stop-color="#5A98FE"/>
          </linearGradient>
          <linearGradient id="paint75_linear_25_777" x1="16745.7" y1="421.094" x2="16745.7" y2="637.669" gradientUnits="userSpaceOnUse">
          <stop stop-color="#43D4C3"/>
          <stop offset="1" stop-color="#5A98FE"/>
          </linearGradient>
          <linearGradient id="paint76_linear_25_777" x1="597.76" y1="421.094" x2="597.76" y2="637.669" gradientUnits="userSpaceOnUse">
          <stop stop-color="#43D4C3"/>
          <stop offset="1" stop-color="#5A98FE"/>
          </linearGradient>
          <linearGradient id="paint77_linear_25_777" x1="3424.95" y1="421.094" x2="3424.95" y2="637.669" gradientUnits="userSpaceOnUse">
          <stop stop-color="#43D4C3"/>
          <stop offset="1" stop-color="#5A98FE"/>
          </linearGradient>
          <linearGradient id="paint78_linear_25_777" x1="10244" y1="421.094" x2="10244" y2="637.669" gradientUnits="userSpaceOnUse">
          <stop offset="0.04" stop-color="#FFD744"/>
          <stop offset="1" stop-color="#F5C144"/>
          </linearGradient>
          <linearGradient id="paint79_linear_25_777" x1="1948.76" y1="357.004" x2="1948.76" y2="573.579" gradientUnits="userSpaceOnUse">
          <stop stop-color="#43D4C3"/>
          <stop offset="1" stop-color="#5A98FE"/>
          </linearGradient>
          <linearGradient id="paint80_linear_25_777" x1="14126.9" y1="357.004" x2="14126.9" y2="573.579" gradientUnits="userSpaceOnUse">
          <stop stop-color="#9972FF"/>
          <stop offset="1" stop-color="#7F85FF"/>
          </linearGradient>
          <linearGradient id="paint81_linear_25_777" x1="597.76" y1="357.004" x2="597.76" y2="573.579" gradientUnits="userSpaceOnUse">
          <stop stop-color="#43D4C3"/>
          <stop offset="1" stop-color="#5A98FE"/>
          </linearGradient>
          <linearGradient id="paint82_linear_25_777" x1="25738.4" y1="357.004" x2="25738.4" y2="573.579" gradientUnits="userSpaceOnUse">
          <stop stop-color="#43D4C3"/>
          <stop offset="1" stop-color="#5A98FE"/>
          </linearGradient>
          <linearGradient id="paint83_linear_25_777" x1="1948.76" y1="433.912" x2="1948.76" y2="650.487" gradientUnits="userSpaceOnUse">
          <stop stop-color="#43D4C3"/>
          <stop offset="1" stop-color="#5A98FE"/>
          </linearGradient>
          <linearGradient id="paint84_linear_25_777" x1="2668.06" y1="433.912" x2="2668.06" y2="650.487" gradientUnits="userSpaceOnUse">
          <stop stop-color="#43D4C3"/>
          <stop offset="1" stop-color="#5A98FE"/>
          </linearGradient>
          <linearGradient id="paint85_linear_25_777" x1="14126.9" y1="433.912" x2="14126.9" y2="650.487" gradientUnits="userSpaceOnUse">
          <stop stop-color="#9972FF"/>
          <stop offset="1" stop-color="#7F85FF"/>
          </linearGradient>
          <linearGradient id="paint86_linear_25_777" x1="597.76" y1="433.912" x2="597.76" y2="650.487" gradientUnits="userSpaceOnUse">
          <stop stop-color="#43D4C3"/>
          <stop offset="1" stop-color="#5A98FE"/>
          </linearGradient>
          <linearGradient id="paint87_linear_25_777" x1="19280" y1="433.912" x2="19280" y2="650.487" gradientUnits="userSpaceOnUse">
          <stop stop-color="#43D4C3"/>
          <stop offset="1" stop-color="#5A98FE"/>
          </linearGradient>
          <linearGradient id="paint88_linear_25_777" x1="6695.16" y1="369.822" x2="6695.16" y2="586.397" gradientUnits="userSpaceOnUse">
          <stop stop-color="#43D4C3"/>
          <stop offset="1" stop-color="#5A98FE"/>
          </linearGradient>
          <linearGradient id="paint89_linear_25_777" x1="3468.35" y1="369.822" x2="3468.35" y2="586.397" gradientUnits="userSpaceOnUse">
          <stop stop-color="#43D4C3"/>
          <stop offset="1" stop-color="#5A98FE"/>
          </linearGradient>
          <linearGradient id="paint90_linear_25_777" x1="597.76" y1="369.822" x2="597.76" y2="586.397" gradientUnits="userSpaceOnUse">
          <stop stop-color="#43D4C3"/>
          <stop offset="1" stop-color="#5A98FE"/>
          </linearGradient>
          <linearGradient id="paint91_linear_25_777" x1="12534.6" y1="369.822" x2="12534.6" y2="586.397" gradientUnits="userSpaceOnUse">
          <stop stop-color="#43D4C3"/>
          <stop offset="1" stop-color="#5A98FE"/>
          </linearGradient>
          <linearGradient id="paint92_linear_25_777" x1="17571.3" y1="369.822" x2="17571.3" y2="586.397" gradientUnits="userSpaceOnUse">
          <stop offset="0.04" stop-color="#FFD744"/>
          <stop offset="1" stop-color="#F5C144"/>
          </linearGradient>
          <linearGradient id="paint93_linear_25_777" x1="19732.6" y1="382.639" x2="19732.6" y2="599.213" gradientUnits="userSpaceOnUse">
          <stop stop-color="#43D4C3"/>
          <stop offset="1" stop-color="#5A98FE"/>
          </linearGradient>
          <linearGradient id="paint94_linear_25_777" x1="597.76" y1="382.639" x2="597.76" y2="599.213" gradientUnits="userSpaceOnUse">
          <stop stop-color="#43D4C3"/>
          <stop offset="1" stop-color="#5A98FE"/>
          </linearGradient>
          <linearGradient id="paint95_linear_25_777" x1="18006.9" y1="382.639" x2="18006.9" y2="599.213" gradientUnits="userSpaceOnUse">
          <stop stop-color="#43D4C3"/>
          <stop offset="1" stop-color="#5A98FE"/>
          </linearGradient>
          <linearGradient id="paint96_linear_25_777" x1="9673.25" y1="395.458" x2="9673.25" y2="612.033" gradientUnits="userSpaceOnUse">
          <stop offset="0.04" stop-color="#FFD744"/>
          <stop offset="1" stop-color="#F5C144"/>
          </linearGradient>
          <linearGradient id="paint97_linear_25_777" x1="597.76" y1="395.458" x2="597.76" y2="612.033" gradientUnits="userSpaceOnUse">
          <stop stop-color="#43D4C3"/>
          <stop offset="1" stop-color="#5A98FE"/>
          </linearGradient>
          <linearGradient id="paint98_linear_25_777" x1="23309.7" y1="395.458" x2="23309.7" y2="612.033" gradientUnits="userSpaceOnUse">
          <stop stop-color="#43D4C3"/>
          <stop offset="1" stop-color="#5A98FE"/>
          </linearGradient>
          <linearGradient id="paint99_linear_25_777" x1="3502.47" y1="395.458" x2="3502.47" y2="612.033" gradientUnits="userSpaceOnUse">
          <stop stop-color="#43D4C3"/>
          <stop offset="1" stop-color="#5A98FE"/>
          </linearGradient>
          <linearGradient id="paint100_linear_25_777" x1="2532.74" y1="395.458" x2="2532.74" y2="612.033" gradientUnits="userSpaceOnUse">
          <stop stop-color="#43D4C3"/>
          <stop offset="1" stop-color="#5A98FE"/>
          </linearGradient>
          <linearGradient id="paint101_linear_25_777" x1="4424.05" y1="408.276" x2="4424.05" y2="624.851" gradientUnits="userSpaceOnUse">
          <stop stop-color="#43D4C3"/>
          <stop offset="1" stop-color="#5A98FE"/>
          </linearGradient>
          <linearGradient id="paint102_linear_25_777" x1="5146.8" y1="408.276" x2="5146.8" y2="624.851" gradientUnits="userSpaceOnUse">
          <stop stop-color="#43D4C3"/>
          <stop offset="1" stop-color="#5A98FE"/>
          </linearGradient>
          <linearGradient id="paint103_linear_25_777" x1="597.76" y1="408.276" x2="597.76" y2="624.851" gradientUnits="userSpaceOnUse">
          <stop stop-color="#43D4C3"/>
          <stop offset="1" stop-color="#5A98FE"/>
          </linearGradient>
          <linearGradient id="paint104_linear_25_777" x1="15571.3" y1="408.276" x2="15571.3" y2="624.851" gradientUnits="userSpaceOnUse">
          <stop stop-color="#43D4C3"/>
          <stop offset="1" stop-color="#5A98FE"/>
          </linearGradient>
          <linearGradient id="paint105_linear_25_777" x1="9874.16" y1="408.276" x2="9874.16" y2="624.851" gradientUnits="userSpaceOnUse">
          <stop stop-color="#9972FF"/>
          <stop offset="1" stop-color="#7F85FF"/>
          </linearGradient>
          <linearGradient id="paint106_linear_25_777" x1="2341.16" y1="408.276" x2="2341.16" y2="624.851" gradientUnits="userSpaceOnUse">
          <stop stop-color="#43D4C3"/>
          <stop offset="1" stop-color="#5A98FE"/>
          </linearGradient>
          <linearGradient id="paint107_linear_25_777" x1="6865.89" y1="39.8524" x2="6865.89" y2="136.792" gradientUnits="userSpaceOnUse">
          <stop stop-color="#E2F4FF"/>
          <stop offset="1" stop-color="#D7ECFF"/>
          </linearGradient>
          <linearGradient id="paint108_linear_25_777" x1="2686.87" y1="39.8524" x2="2686.87" y2="136.792" gradientUnits="userSpaceOnUse">
          <stop stop-color="#E2F4FF"/>
          <stop offset="1" stop-color="#D7ECFF"/>
          </linearGradient>
          <linearGradient id="paint109_linear_25_777" x1="959.342" y1="39.8524" x2="959.342" y2="136.792" gradientUnits="userSpaceOnUse">
          <stop stop-color="#E2F4FF"/>
          <stop offset="1" stop-color="#D7ECFF"/>
          </linearGradient>
          <linearGradient id="paint110_linear_25_777" x1="3999.89" y1="39.8524" x2="3999.89" y2="136.792" gradientUnits="userSpaceOnUse">
          <stop stop-color="#E2F4FF"/>
          <stop offset="1" stop-color="#D7ECFF"/>
          </linearGradient>
          <linearGradient id="paint111_linear_25_777" x1="5945.9" y1="39.8524" x2="5945.9" y2="136.792" gradientUnits="userSpaceOnUse">
          <stop stop-color="#E2F4FF"/>
          <stop offset="1" stop-color="#D7ECFF"/>
          </linearGradient>
          <linearGradient id="paint112_linear_25_777" x1="9837.99" y1="91.3767" x2="9837.99" y2="188.316" gradientUnits="userSpaceOnUse">
          <stop stop-color="#E2F4FF"/>
          <stop offset="1" stop-color="#D7ECFF"/>
          </linearGradient>
          <linearGradient id="paint113_linear_25_777" x1="959.342" y1="91.3767" x2="959.342" y2="188.316" gradientUnits="userSpaceOnUse">
          <stop stop-color="#E2F4FF"/>
          <stop offset="1" stop-color="#D7ECFF"/>
          </linearGradient>
          <linearGradient id="paint114_linear_25_777" x1="2444.04" y1="91.3767" x2="2444.04" y2="188.316" gradientUnits="userSpaceOnUse">
          <stop stop-color="#E2F4FF"/>
          <stop offset="1" stop-color="#D7ECFF"/>
          </linearGradient>
          <linearGradient id="paint115_linear_25_777" x1="5945.9" y1="91.3767" x2="5945.9" y2="188.316" gradientUnits="userSpaceOnUse">
          <stop stop-color="#E2F4FF"/>
          <stop offset="1" stop-color="#D7ECFF"/>
          </linearGradient>
          <linearGradient id="paint116_linear_25_777" x1="1715.02" y1="48.4398" x2="1715.02" y2="145.379" gradientUnits="userSpaceOnUse">
          <stop stop-color="#E2F4FF"/>
          <stop offset="1" stop-color="#D7ECFF"/>
          </linearGradient>
          <linearGradient id="paint117_linear_25_777" x1="8204.41" y1="48.4398" x2="8204.41" y2="145.379" gradientUnits="userSpaceOnUse">
          <stop stop-color="#E2F4FF"/>
          <stop offset="1" stop-color="#D7ECFF"/>
          </linearGradient>
          <linearGradient id="paint118_linear_25_777" x1="959.342" y1="48.4398" x2="959.342" y2="145.379" gradientUnits="userSpaceOnUse">
          <stop stop-color="#E2F4FF"/>
          <stop offset="1" stop-color="#D7ECFF"/>
          </linearGradient>
          <linearGradient id="paint119_linear_25_777" x1="14248.4" y1="48.4398" x2="14248.4" y2="145.379" gradientUnits="userSpaceOnUse">
          <stop stop-color="#E2F4FF"/>
          <stop offset="1" stop-color="#D7ECFF"/>
          </linearGradient>
          <linearGradient id="paint120_linear_25_777" x1="1715.02" y1="99.9641" x2="1715.02" y2="196.904" gradientUnits="userSpaceOnUse">
          <stop stop-color="#E2F4FF"/>
          <stop offset="1" stop-color="#D7ECFF"/>
          </linearGradient>
          <linearGradient id="paint121_linear_25_777" x1="2058.86" y1="99.9641" x2="2058.86" y2="196.904" gradientUnits="userSpaceOnUse">
          <stop stop-color="#E2F4FF"/>
          <stop offset="1" stop-color="#D7ECFF"/>
          </linearGradient>
          <linearGradient id="paint122_linear_25_777" x1="8204.41" y1="99.9641" x2="8204.41" y2="196.904" gradientUnits="userSpaceOnUse">
          <stop stop-color="#E2F4FF"/>
          <stop offset="1" stop-color="#D7ECFF"/>
          </linearGradient>
          <linearGradient id="paint123_linear_25_777" x1="959.342" y1="99.9641" x2="959.342" y2="196.904" gradientUnits="userSpaceOnUse">
          <stop stop-color="#E2F4FF"/>
          <stop offset="1" stop-color="#D7ECFF"/>
          </linearGradient>
          <linearGradient id="paint124_linear_25_777" x1="10789.1" y1="99.9641" x2="10789.1" y2="196.904" gradientUnits="userSpaceOnUse">
          <stop stop-color="#E2F4FF"/>
          <stop offset="1" stop-color="#D7ECFF"/>
          </linearGradient>
          <linearGradient id="paint125_linear_25_777" x1="4352.05" y1="57.0273" x2="4352.05" y2="153.967" gradientUnits="userSpaceOnUse">
          <stop stop-color="#E2F4FF"/>
          <stop offset="1" stop-color="#D7ECFF"/>
          </linearGradient>
          <linearGradient id="paint126_linear_25_777" x1="2525.2" y1="57.0273" x2="2525.2" y2="153.967" gradientUnits="userSpaceOnUse">
          <stop stop-color="#E2F4FF"/>
          <stop offset="1" stop-color="#D7ECFF"/>
          </linearGradient>
          <linearGradient id="paint127_linear_25_777" x1="959.342" y1="57.0273" x2="959.342" y2="153.967" gradientUnits="userSpaceOnUse">
          <stop stop-color="#E2F4FF"/>
          <stop offset="1" stop-color="#D7ECFF"/>
          </linearGradient>
          <linearGradient id="paint128_linear_25_777" x1="7373.35" y1="57.0273" x2="7373.35" y2="153.967" gradientUnits="userSpaceOnUse">
          <stop stop-color="#E2F4FF"/>
          <stop offset="1" stop-color="#D7ECFF"/>
          </linearGradient>
          <linearGradient id="paint129_linear_25_777" x1="9725.22" y1="57.0273" x2="9725.22" y2="153.967" gradientUnits="userSpaceOnUse">
          <stop stop-color="#E2F4FF"/>
          <stop offset="1" stop-color="#D7ECFF"/>
          </linearGradient>
          <linearGradient id="paint130_linear_25_777" x1="11450" y1="65.6147" x2="11450" y2="162.554" gradientUnits="userSpaceOnUse">
          <stop stop-color="#E2F4FF"/>
          <stop offset="1" stop-color="#D7ECFF"/>
          </linearGradient>
          <linearGradient id="paint131_linear_25_777" x1="959.342" y1="65.6147" x2="959.342" y2="162.554" gradientUnits="userSpaceOnUse">
          <stop stop-color="#E2F4FF"/>
          <stop offset="1" stop-color="#D7ECFF"/>
          </linearGradient>
          <linearGradient id="paint132_linear_25_777" x1="10174.7" y1="65.6147" x2="10174.7" y2="162.554" gradientUnits="userSpaceOnUse">
          <stop stop-color="#E2F4FF"/>
          <stop offset="1" stop-color="#D7ECFF"/>
          </linearGradient>
          <linearGradient id="paint133_linear_25_777" x1="5828.66" y1="74.2019" x2="5828.66" y2="171.141" gradientUnits="userSpaceOnUse">
          <stop stop-color="#E2F4FF"/>
          <stop offset="1" stop-color="#D7ECFF"/>
          </linearGradient>
          <linearGradient id="paint134_linear_25_777" x1="959.342" y1="74.2019" x2="959.342" y2="171.141" gradientUnits="userSpaceOnUse">
          <stop stop-color="#E2F4FF"/>
          <stop offset="1" stop-color="#D7ECFF"/>
          </linearGradient>
          <linearGradient id="paint135_linear_25_777" x1="13028.8" y1="74.2019" x2="13028.8" y2="171.141" gradientUnits="userSpaceOnUse">
          <stop stop-color="#E2F4FF"/>
          <stop offset="1" stop-color="#D7ECFF"/>
          </linearGradient>
          <linearGradient id="paint136_linear_25_777" x1="2466.73" y1="74.2019" x2="2466.73" y2="171.141" gradientUnits="userSpaceOnUse">
          <stop stop-color="#E2F4FF"/>
          <stop offset="1" stop-color="#D7ECFF"/>
          </linearGradient>
          <linearGradient id="paint137_linear_25_777" x1="2004.81" y1="74.2019" x2="2004.81" y2="171.141" gradientUnits="userSpaceOnUse">
          <stop stop-color="#E2F4FF"/>
          <stop offset="1" stop-color="#D7ECFF"/>
          </linearGradient>
          <linearGradient id="paint138_linear_25_777" x1="3093.59" y1="82.7893" x2="3093.59" y2="179.729" gradientUnits="userSpaceOnUse">
          <stop stop-color="#E2F4FF"/>
          <stop offset="1" stop-color="#D7ECFF"/>
          </linearGradient>
          <linearGradient id="paint139_linear_25_777" x1="3428.8" y1="82.7893" x2="3428.8" y2="179.729" gradientUnits="userSpaceOnUse">
          <stop stop-color="#E2F4FF"/>
          <stop offset="1" stop-color="#D7ECFF"/>
          </linearGradient>
          <linearGradient id="paint140_linear_25_777" x1="959.342" y1="82.7893" x2="959.342" y2="179.729" gradientUnits="userSpaceOnUse">
          <stop stop-color="#E2F4FF"/>
          <stop offset="1" stop-color="#D7ECFF"/>
          </linearGradient>
          <linearGradient id="paint141_linear_25_777" x1="8936.3" y1="82.7893" x2="8936.3" y2="179.729" gradientUnits="userSpaceOnUse">
          <stop stop-color="#E2F4FF"/>
          <stop offset="1" stop-color="#D7ECFF"/>
          </linearGradient>
          <linearGradient id="paint142_linear_25_777" x1="5656.97" y1="82.7893" x2="5656.97" y2="179.729" gradientUnits="userSpaceOnUse">
          <stop stop-color="#E2F4FF"/>
          <stop offset="1" stop-color="#D7ECFF"/>
          </linearGradient>
          <linearGradient id="paint143_linear_25_777" x1="1913.53" y1="82.7893" x2="1913.53" y2="179.729" gradientUnits="userSpaceOnUse">
          <stop stop-color="#E2F4FF"/>
          <stop offset="1" stop-color="#D7ECFF"/>
          </linearGradient>
          <linearGradient id="paint144_linear_25_777" x1="6328.64" y1="414.358" x2="7069.79" y2="414.358" gradientUnits="userSpaceOnUse">
          <stop offset="0.09" stop-color="#374492"/>
          <stop offset="1" stop-color="#014DAE"/>
          </linearGradient>
          <linearGradient id="paint145_linear_25_777" x1="9801.52" y1="5227.29" x2="10543" y2="5227.29" gradientUnits="userSpaceOnUse">
          <stop offset="0.09" stop-color="#374492"/>
          <stop offset="1" stop-color="#014DAE"/>
          </linearGradient>
          <linearGradient id="paint146_linear_25_777" x1="1419.95" y1="4946.12" x2="2161.46" y2="4946.12" gradientUnits="userSpaceOnUse">
          <stop offset="0.09" stop-color="#374492"/>
          <stop offset="1" stop-color="#014DAE"/>
          </linearGradient>
          <linearGradient id="paint147_linear_25_777" x1="547.226" y1="346.06" x2="547.791" y2="346.06" gradientUnits="userSpaceOnUse">
          <stop stop-color="#9972FF"/>
          <stop offset="1" stop-color="#7F85FF"/>
          </linearGradient>
          <clipPath id="clip0_25_777">
          <rect width="110.103" height="192.681" fill="white" transform="translate(238.681) rotate(90)"/>
          </clipPath>
          <clipPath id="clip1_25_777">
          <rect width="558" height="514.847" fill="white" transform="translate(0 42)"/>
          </clipPath>
          </defs>
          </svg>