<?xml version="1.0" standalone="no"?>
<!DOCTYPE svg PUBLIC "-//W3C//DTD SVG 20010904//EN"
 "http://www.w3.org/TR/2001/REC-SVG-20010904/DTD/svg10.dtd">
<svg version="1.0" xmlns="http://www.w3.org/2000/svg"
 width="512.000000pt" height="512.000000pt" viewBox="0 0 512.000000 512.000000"
 preserveAspectRatio="xMidYMid meet">

<g transform="translate(0.000000,512.000000) scale(0.100000,-0.100000)"
fill="#000000" stroke="none">
<path d="M754 4949 c-141 -24 -266 -91 -379 -204 -91 -91 -143 -174 -183 -290
l-27 -80 0 -1815 0 -1815 27 -80 c40 -116 92 -199 183 -290 91 -91 174 -143
290 -183 l80 -27 1815 0 1815 0 80 27 c116 40 199 92 290 183 91 91 143 174
183 290 l27 80 0 1815 0 1815 -27 80 c-40 116 -92 199 -183 290 -91 91 -174
143 -290 183 l-80 27 -1785 1 c-982 1 -1808 -2 -1836 -7z m3667 -180 c37 -14
87 -38 113 -53 58 -34 149 -125 183 -184 31 -52 73 -164 73 -192 0 -20 -24
-20 -2230 -20 -2206 0 -2230 0 -2230 20 0 29 43 141 74 195 39 65 135 156 206
194 32 17 92 40 132 51 71 18 126 19 1843 17 l1770 -2 66 -26z m377 -2306 l-3
-1698 -23 -62 c-65 -173 -196 -300 -372 -359 -53 -18 -125 -19 -1840 -19
-1715 0 -1787 1 -1840 19 -201 68 -355 238 -389 430 -8 41 -11 586 -11 1723
l0 1663 2240 0 2240 0 -2 -1697z"/>
<path d="M3625 4615 c-16 -15 -25 -36 -25 -55 0 -19 9 -40 25 -55 15 -16 36
-25 55 -25 19 0 40 9 55 25 16 15 25 36 25 55 0 19 -9 40 -25 55 -15 16 -36
25 -55 25 -19 0 -40 -9 -55 -25z"/>
<path d="M3945 4615 c-16 -15 -25 -36 -25 -55 0 -19 9 -40 25 -55 15 -16 36
-25 55 -25 19 0 40 9 55 25 16 15 25 36 25 55 0 19 -9 40 -25 55 -15 16 -36
25 -55 25 -19 0 -40 -9 -55 -25z"/>
<path d="M4265 4615 c-16 -15 -25 -36 -25 -55 0 -19 9 -40 25 -55 15 -16 36
-25 55 -25 19 0 40 9 55 25 16 15 25 36 25 55 0 19 -9 40 -25 55 -15 16 -36
25 -55 25 -19 0 -40 -9 -55 -25z"/>
<path d="M2465 3987 c-54 -14 -129 -50 -157 -74 -14 -13 -25 -13 -69 -3 -148
36 -301 -37 -370 -175 -20 -41 -24 -65 -24 -135 0 -90 15 -132 72 -206 23 -32
23 -70 -2 -60 -6 2 -55 10 -108 16 -125 16 -371 8 -452 -14 -317 -87 -441
-324 -334 -637 41 -120 140 -293 230 -400 22 -26 39 -52 39 -58 0 -6 -22 -39
-49 -74 -237 -303 -314 -583 -215 -785 34 -69 116 -150 188 -185 38 -19 56
-34 56 -46 0 -35 39 -110 79 -154 155 -167 431 -122 522 87 33 76 53 78 79 9
102 -272 270 -491 439 -572 71 -34 82 -36 171 -36 89 0 100 2 171 36 169 81
337 300 439 571 l20 54 82 -12 c120 -18 349 -17 449 2 262 49 407 200 414 428
3 77 6 91 28 115 95 103 120 238 68 357 -57 127 -208 210 -340 186 -73 -13
-77 9 -13 90 379 484 337 899 -104 1023 -82 23 -378 31 -496 13 l-87 -14 -17
46 c-102 273 -274 498 -440 577 -84 40 -186 51 -269 30z m209 -176 c60 -29
119 -83 178 -160 57 -76 183 -323 175 -345 -3 -8 -21 -17 -39 -21 -53 -12
-267 -84 -342 -116 -37 -16 -76 -29 -86 -29 -10 0 -43 11 -75 26 -32 14 -116
45 -188 68 l-130 44 44 7 c51 9 123 43 166 79 16 14 45 53 64 88 30 56 33 72
34 143 0 67 -5 90 -27 139 -16 32 -25 62 -22 67 3 5 26 15 52 24 59 19 139 13
196 -14z m-451 -65 c104 -43 128 -175 47 -256 -66 -66 -156 -67 -221 -1 -124
123 13 325 174 257z m-488 -546 c128 -12 148 -17 141 -35 -12 -33 -59 -258
-74 -362 l-17 -115 -112 -91 c-62 -51 -148 -125 -191 -165 l-80 -72 -54 72
c-223 301 -267 540 -123 666 102 91 271 124 510 102z m1952 -9 c202 -39 307
-157 289 -323 -15 -126 -86 -279 -203 -436 l-55 -72 -103 94 c-57 52 -143 126
-193 165 l-90 71 -6 58 c-9 75 -52 302 -71 372 -11 41 -11 56 -3 61 7 4 46 10
88 14 41 3 84 8 95 10 30 5 197 -4 252 -14z m-1373 -129 l48 -19 -98 -53 c-55
-29 -141 -79 -193 -111 -51 -33 -95 -59 -98 -59 -11 0 48 294 63 322 4 7 196
-49 278 -80z m801 -38 c14 -60 28 -131 31 -158 8 -56 17 -58 -112 22 -43 27
-123 73 -177 102 -54 29 -97 54 -95 55 2 2 190 64 288 95 14 4 28 4 33 1 4 -4
18 -56 32 -117z m-397 -144 c177 -90 428 -246 455 -282 37 -49 33 -706 -4
-729 -8 -5 -77 -50 -154 -99 -77 -50 -211 -126 -297 -170 l-157 -81 -130 66
c-128 64 -292 159 -423 246 -56 36 -69 50 -75 79 -10 46 -10 593 0 650 9 49
21 59 232 189 74 45 382 210 393 211 2 0 74 -36 160 -80z m-953 -639 l0 -229
-40 32 c-21 17 -78 68 -125 113 l-85 81 35 37 c25 27 210 195 215 195 0 0 0
-103 0 -229z m1750 85 l90 -85 -85 -83 c-47 -46 -103 -97 -125 -114 l-40 -32
0 228 0 228 35 -28 c20 -16 76 -67 125 -114z m-1849 -437 l122 -100 6 -62 c8
-67 53 -307 63 -334 4 -9 -13 5 -37 31 -61 66 -128 98 -216 104 -123 8 -226
-42 -286 -139 -17 -27 -35 -49 -40 -49 -5 0 -31 22 -58 49 -51 52 -80 120 -80
190 1 112 83 304 196 454 l66 87 71 -65 c40 -36 127 -111 193 -166z m2316 171
c49 -14 104 -76 113 -129 15 -88 -63 -181 -152 -181 -88 0 -151 53 -160 135
-10 82 28 143 104 170 47 17 49 17 95 5z m-339 -32 c-13 -25 -18 -56 -18 -123
0 -78 4 -97 27 -140 54 -103 148 -165 261 -173 77 -5 79 -9 52 -100 -41 -138
-190 -211 -435 -215 -118 -2 -257 9 -277 21 -8 5 -5 34 12 102 24 102 65 331
65 366 0 15 27 43 88 92 48 38 120 99 161 136 40 36 75 66 78 66 2 0 -4 -15
-14 -32z m-1572 -427 c52 -32 136 -80 186 -107 51 -27 93 -52 93 -56 0 -9
-274 -98 -300 -98 -19 0 -27 22 -61 188 -18 91 -23 132 -15 132 2 0 46 -26 97
-59z m1079 39 c0 -25 -48 -254 -60 -285 l-9 -23 -108 33 c-59 18 -132 42 -162
52 l-54 19 114 62 c63 35 148 85 189 111 41 27 78 50 83 50 4 1 7 -8 7 -19z
m-1494 -286 c91 -43 112 -172 41 -248 -66 -70 -165 -69 -230 3 -73 81 -52 194
48 249 30 17 102 14 141 -4z m1069 -72 c72 -28 168 -60 214 -73 45 -12 85 -29
88 -36 6 -16 -93 -223 -142 -298 -247 -371 -532 -294 -758 204 -21 46 -36 89
-34 95 3 7 36 21 74 31 79 21 258 84 323 114 58 26 78 23 235 -37z"/>
<path d="M2441 2704 c-253 -68 -410 -331 -346 -579 62 -237 291 -393 529 -358
213 30 379 195 409 407 48 333 -269 617 -592 530z m254 -175 c237 -112 246
-441 15 -568 -60 -33 -71 -36 -150 -36 -78 0 -91 3 -148 34 -249 135 -220 488
48 585 63 23 170 16 235 -15z"/>
</g>
</svg>
