<?xml version="1.0" encoding="UTF-8"?>
<svg xmlns="http://www.w3.org/2000/svg" xmlns:xlink="http://www.w3.org/1999/xlink" width="3061.09" height="3304.81" viewBox="0 0 3061.09 3304.81">
<defs>
<clipPath id="clip-0">
<path clip-rule="nonzero" d="M 2256 214 L 2653 214 L 2653 612 L 2256 612 Z M 2256 214 "/>
</clipPath>
<clipPath id="clip-1">
<path clip-rule="evenodd" d="M 2256.140625 515.191406 C 2256.140625 568.289062 2299.351562 611.480469 2352.480469 611.480469 L 2652.960938 611.480469 L 2256.140625 214.71875 L 2256.140625 515.191406 "/>
</clipPath>
<linearGradient id="linear-pattern-0" gradientUnits="userSpaceOnUse" x1="0.250002" y1="0" x2="0.750005" y2="0" gradientTransform="matrix(793.635, 0, 0, 793.635, 2057.73, 413.1)">
<stop offset="0" stop-color="rgb(37.449646%, 41.371155%, 69.900513%)" stop-opacity="1"/>
<stop offset="0.03125" stop-color="rgb(37.321472%, 41.548157%, 70.025635%)" stop-opacity="1"/>
<stop offset="0.0625" stop-color="rgb(37.063599%, 41.903687%, 70.277405%)" stop-opacity="1"/>
<stop offset="0.09375" stop-color="rgb(36.805725%, 42.259216%, 70.529175%)" stop-opacity="1"/>
<stop offset="0.125" stop-color="rgb(36.549377%, 42.614746%, 70.779419%)" stop-opacity="1"/>
<stop offset="0.15625" stop-color="rgb(36.291504%, 42.970276%, 71.031189%)" stop-opacity="1"/>
<stop offset="0.1875" stop-color="rgb(36.03363%, 43.325806%, 71.282959%)" stop-opacity="1"/>
<stop offset="0.21875" stop-color="rgb(35.777283%, 43.681335%, 71.533203%)" stop-opacity="1"/>
<stop offset="0.25" stop-color="rgb(35.519409%, 44.036865%, 71.784973%)" stop-opacity="1"/>
<stop offset="0.28125" stop-color="rgb(35.261536%, 44.392395%, 72.036743%)" stop-opacity="1"/>
<stop offset="0.3125" stop-color="rgb(35.005188%, 44.747925%, 72.286987%)" stop-opacity="1"/>
<stop offset="0.34375" stop-color="rgb(34.747314%, 45.103455%, 72.538757%)" stop-opacity="1"/>
<stop offset="0.375" stop-color="rgb(34.489441%, 45.457458%, 72.790527%)" stop-opacity="1"/>
<stop offset="0.40625" stop-color="rgb(34.233093%, 45.812988%, 73.040771%)" stop-opacity="1"/>
<stop offset="0.4375" stop-color="rgb(33.97522%, 46.168518%, 73.292542%)" stop-opacity="1"/>
<stop offset="0.46875" stop-color="rgb(33.717346%, 46.524048%, 73.544312%)" stop-opacity="1"/>
<stop offset="0.5" stop-color="rgb(33.460999%, 46.879578%, 73.794556%)" stop-opacity="1"/>
<stop offset="0.53125" stop-color="rgb(33.203125%, 47.235107%, 74.046326%)" stop-opacity="1"/>
<stop offset="0.5625" stop-color="rgb(32.945251%, 47.590637%, 74.29657%)" stop-opacity="1"/>
<stop offset="0.59375" stop-color="rgb(32.688904%, 47.946167%, 74.54834%)" stop-opacity="1"/>
<stop offset="0.625" stop-color="rgb(32.43103%, 48.301697%, 74.80011%)" stop-opacity="1"/>
<stop offset="0.65625" stop-color="rgb(32.173157%, 48.657227%, 75.050354%)" stop-opacity="1"/>
<stop offset="0.6875" stop-color="rgb(31.916809%, 49.012756%, 75.302124%)" stop-opacity="1"/>
<stop offset="0.71875" stop-color="rgb(31.658936%, 49.368286%, 75.553894%)" stop-opacity="1"/>
<stop offset="0.75" stop-color="rgb(31.401062%, 49.72229%, 75.804138%)" stop-opacity="1"/>
<stop offset="0.78125" stop-color="rgb(31.144714%, 50.07782%, 76.055908%)" stop-opacity="1"/>
<stop offset="0.8125" stop-color="rgb(30.886841%, 50.43335%, 76.307678%)" stop-opacity="1"/>
<stop offset="0.84375" stop-color="rgb(30.630493%, 50.788879%, 76.557922%)" stop-opacity="1"/>
<stop offset="0.875" stop-color="rgb(30.37262%, 51.144409%, 76.809692%)" stop-opacity="1"/>
<stop offset="0.90625" stop-color="rgb(30.114746%, 51.499939%, 77.061462%)" stop-opacity="1"/>
<stop offset="0.9375" stop-color="rgb(29.858398%, 51.855469%, 77.311707%)" stop-opacity="1"/>
<stop offset="0.96875" stop-color="rgb(29.600525%, 52.210999%, 77.563477%)" stop-opacity="1"/>
<stop offset="1" stop-color="rgb(29.342651%, 52.566528%, 77.813721%)" stop-opacity="1"/>
</linearGradient>
<clipPath id="clip-2">
<path clip-rule="nonzero" d="M 475 152 L 2716 152 L 2716 2104 L 475 2104 Z M 475 152 "/>
</clipPath>
<clipPath id="clip-3">
<path clip-rule="evenodd" d="M 1422.269531 794.398438 C 1449.988281 822.101562 1430.109375 869.449219 1391.171875 869.449219 C 1379.921875 869.449219 1368.660156 865.148438 1360.070312 856.578125 L 1152.019531 648.53125 C 1134.871094 631.378906 1134.871094 603.488281 1152.019531 586.328125 L 1360.070312 378.308594 C 1401.019531 337.351562 1463.230469 399.570312 1422.28125 440.519531 L 1245.320312 617.460938 Z M 1885.269531 856.578125 C 1876.691406 865.148438 1865.421875 869.449219 1854.199219 869.449219 C 1815.328125 869.449219 1795.339844 822.101562 1823.101562 794.371094 L 2000.03125 617.460938 L 1823.101562 440.539062 C 1782.179688 399.609375 1844.300781 337.359375 1885.269531 378.328125 L 2093.320312 586.351562 C 2110.46875 603.511719 2110.46875 631.390625 2093.320312 648.539062 Z M 852.492188 1765.398438 L 2399.050781 1765.398438 C 2456.96875 1765.398438 2456.96875 1853.359375 2399.050781 1853.359375 L 852.492188 1853.359375 C 794.59375 1853.359375 794.59375 1765.398438 852.492188 1765.398438 Z M 852.492188 1427.609375 L 2399.050781 1427.609375 C 2456.96875 1427.609375 2456.96875 1515.578125 2399.050781 1515.578125 L 852.492188 1515.578125 C 794.578125 1515.578125 794.59375 1427.609375 852.492188 1427.609375 Z M 2399.050781 1089.78125 C 2456.96875 1089.78125 2456.96875 1177.738281 2399.050781 1177.738281 L 852.492188 1177.738281 C 794.59375 1177.738281 794.59375 1089.78125 852.492188 1089.78125 Z M 1609.070312 844.269531 C 1603.789062 863.929688 1586.011719 876.878906 1566.601562 876.878906 C 1537.859375 876.878906 1516.558594 849.601562 1524.089844 821.53125 L 1636.300781 402.660156 C 1651.300781 346.679688 1736.300781 369.53125 1721.269531 425.421875 Z M 2715.148438 699.449219 L 2352.480469 699.449219 C 2250.859375 699.449219 2168.199219 616.78125 2168.199219 515.171875 L 2168.199219 152.519531 L 816.65625 152.519531 C 628.292969 152.519531 475.0625 305.78125 475.0625 494.101562 L 475.0625 2103.328125 L 2715.148438 2103.328125 L 2715.148438 699.449219 "/>
</clipPath>
<linearGradient id="linear-pattern-1" gradientUnits="userSpaceOnUse" x1="0.000000000000000083" y1="0" x2="0.999999" y2="0" gradientTransform="matrix(2240.09, 0, 0, 2240.09, 475.062, 1127.93)">
<stop offset="0" stop-color="rgb(41.567993%, 35.68573%, 65.881348%)" stop-opacity="1"/>
<stop offset="0.015625" stop-color="rgb(41.438293%, 35.862732%, 66.00647%)" stop-opacity="1"/>
<stop offset="0.03125" stop-color="rgb(41.181946%, 36.218262%, 66.25824%)" stop-opacity="1"/>
<stop offset="0.046875" stop-color="rgb(40.924072%, 36.573792%, 66.508484%)" stop-opacity="1"/>
<stop offset="0.0625" stop-color="rgb(40.666199%, 36.929321%, 66.760254%)" stop-opacity="1"/>
<stop offset="0.078125" stop-color="rgb(40.409851%, 37.284851%, 67.012024%)" stop-opacity="1"/>
<stop offset="0.09375" stop-color="rgb(40.151978%, 37.638855%, 67.262268%)" stop-opacity="1"/>
<stop offset="0.109375" stop-color="rgb(39.894104%, 37.994385%, 67.514038%)" stop-opacity="1"/>
<stop offset="0.125" stop-color="rgb(39.637756%, 38.349915%, 67.765808%)" stop-opacity="1"/>
<stop offset="0.140625" stop-color="rgb(39.379883%, 38.705444%, 68.016052%)" stop-opacity="1"/>
<stop offset="0.15625" stop-color="rgb(39.122009%, 39.060974%, 68.267822%)" stop-opacity="1"/>
<stop offset="0.171875" stop-color="rgb(38.865662%, 39.416504%, 68.519592%)" stop-opacity="1"/>
<stop offset="0.1875" stop-color="rgb(38.607788%, 39.772034%, 68.769836%)" stop-opacity="1"/>
<stop offset="0.203125" stop-color="rgb(38.349915%, 40.127563%, 69.021606%)" stop-opacity="1"/>
<stop offset="0.21875" stop-color="rgb(38.093567%, 40.483093%, 69.273376%)" stop-opacity="1"/>
<stop offset="0.234375" stop-color="rgb(37.835693%, 40.838623%, 69.523621%)" stop-opacity="1"/>
<stop offset="0.25" stop-color="rgb(37.57782%, 41.194153%, 69.775391%)" stop-opacity="1"/>
<stop offset="0.265625" stop-color="rgb(37.321472%, 41.548157%, 70.025635%)" stop-opacity="1"/>
<stop offset="0.28125" stop-color="rgb(37.063599%, 41.903687%, 70.277405%)" stop-opacity="1"/>
<stop offset="0.296875" stop-color="rgb(36.805725%, 42.259216%, 70.529175%)" stop-opacity="1"/>
<stop offset="0.3125" stop-color="rgb(36.549377%, 42.614746%, 70.779419%)" stop-opacity="1"/>
<stop offset="0.328125" stop-color="rgb(36.291504%, 42.970276%, 71.031189%)" stop-opacity="1"/>
<stop offset="0.34375" stop-color="rgb(36.03363%, 43.325806%, 71.282959%)" stop-opacity="1"/>
<stop offset="0.359375" stop-color="rgb(35.777283%, 43.681335%, 71.533203%)" stop-opacity="1"/>
<stop offset="0.375" stop-color="rgb(35.519409%, 44.036865%, 71.784973%)" stop-opacity="1"/>
<stop offset="0.390625" stop-color="rgb(35.261536%, 44.392395%, 72.036743%)" stop-opacity="1"/>
<stop offset="0.40625" stop-color="rgb(35.005188%, 44.747925%, 72.286987%)" stop-opacity="1"/>
<stop offset="0.421875" stop-color="rgb(34.747314%, 45.103455%, 72.538757%)" stop-opacity="1"/>
<stop offset="0.4375" stop-color="rgb(34.489441%, 45.457458%, 72.790527%)" stop-opacity="1"/>
<stop offset="0.453125" stop-color="rgb(34.233093%, 45.812988%, 73.040771%)" stop-opacity="1"/>
<stop offset="0.46875" stop-color="rgb(33.97522%, 46.168518%, 73.292542%)" stop-opacity="1"/>
<stop offset="0.484375" stop-color="rgb(33.717346%, 46.524048%, 73.542786%)" stop-opacity="1"/>
<stop offset="0.5" stop-color="rgb(33.460999%, 46.879578%, 73.794556%)" stop-opacity="1"/>
<stop offset="0.515625" stop-color="rgb(33.203125%, 47.235107%, 74.046326%)" stop-opacity="1"/>
<stop offset="0.53125" stop-color="rgb(32.945251%, 47.590637%, 74.29657%)" stop-opacity="1"/>
<stop offset="0.546875" stop-color="rgb(32.688904%, 47.946167%, 74.54834%)" stop-opacity="1"/>
<stop offset="0.5625" stop-color="rgb(32.43103%, 48.301697%, 74.80011%)" stop-opacity="1"/>
<stop offset="0.578125" stop-color="rgb(32.174683%, 48.657227%, 75.050354%)" stop-opacity="1"/>
<stop offset="0.59375" stop-color="rgb(31.916809%, 49.012756%, 75.302124%)" stop-opacity="1"/>
<stop offset="0.609375" stop-color="rgb(31.658936%, 49.36676%, 75.553894%)" stop-opacity="1"/>
<stop offset="0.625" stop-color="rgb(31.402588%, 49.72229%, 75.804138%)" stop-opacity="1"/>
<stop offset="0.640625" stop-color="rgb(31.144714%, 50.07782%, 76.055908%)" stop-opacity="1"/>
<stop offset="0.65625" stop-color="rgb(30.886841%, 50.43335%, 76.307678%)" stop-opacity="1"/>
<stop offset="0.671875" stop-color="rgb(30.630493%, 50.788879%, 76.557922%)" stop-opacity="1"/>
<stop offset="0.6875" stop-color="rgb(30.37262%, 51.144409%, 76.809692%)" stop-opacity="1"/>
<stop offset="0.703125" stop-color="rgb(30.114746%, 51.499939%, 77.059937%)" stop-opacity="1"/>
<stop offset="0.71875" stop-color="rgb(29.858398%, 51.855469%, 77.311707%)" stop-opacity="1"/>
<stop offset="0.734375" stop-color="rgb(29.600525%, 52.210999%, 77.563477%)" stop-opacity="1"/>
<stop offset="0.75" stop-color="rgb(29.342651%, 52.566528%, 77.813721%)" stop-opacity="1"/>
<stop offset="0.765625" stop-color="rgb(29.086304%, 52.922058%, 78.065491%)" stop-opacity="1"/>
<stop offset="0.78125" stop-color="rgb(28.82843%, 53.276062%, 78.317261%)" stop-opacity="1"/>
<stop offset="0.796875" stop-color="rgb(28.570557%, 53.631592%, 78.567505%)" stop-opacity="1"/>
<stop offset="0.8125" stop-color="rgb(28.314209%, 53.987122%, 78.819275%)" stop-opacity="1"/>
<stop offset="0.828125" stop-color="rgb(28.056335%, 54.342651%, 79.071045%)" stop-opacity="1"/>
<stop offset="0.84375" stop-color="rgb(27.798462%, 54.698181%, 79.321289%)" stop-opacity="1"/>
<stop offset="0.859375" stop-color="rgb(27.542114%, 55.053711%, 79.573059%)" stop-opacity="1"/>
<stop offset="0.875" stop-color="rgb(27.284241%, 55.409241%, 79.824829%)" stop-opacity="1"/>
<stop offset="0.890625" stop-color="rgb(27.026367%, 55.764771%, 80.075073%)" stop-opacity="1"/>
<stop offset="0.90625" stop-color="rgb(26.77002%, 56.1203%, 80.326843%)" stop-opacity="1"/>
<stop offset="0.921875" stop-color="rgb(26.512146%, 56.47583%, 80.577087%)" stop-opacity="1"/>
<stop offset="0.9375" stop-color="rgb(26.254272%, 56.83136%, 80.828857%)" stop-opacity="1"/>
<stop offset="0.953125" stop-color="rgb(25.997925%, 57.185364%, 81.080627%)" stop-opacity="1"/>
<stop offset="0.96875" stop-color="rgb(25.740051%, 57.540894%, 81.330872%)" stop-opacity="1"/>
<stop offset="0.984375" stop-color="rgb(25.482178%, 57.896423%, 81.582642%)" stop-opacity="1"/>
<stop offset="1" stop-color="rgb(25.22583%, 58.251953%, 81.834412%)" stop-opacity="1"/>
</linearGradient>
<clipPath id="clip-4">
<path clip-rule="nonzero" d="M 152 2191 L 3038 2191 L 3038 3282 L 152 3282 Z M 152 2191 "/>
</clipPath>
<clipPath id="clip-5">
<path clip-rule="evenodd" d="M 1490.761719 2918.339844 C 1490.78125 3067.109375 1369.050781 3144.988281 1248.789062 3144.988281 C 1117.621094 3144.988281 1008.550781 3058.421875 1008.550781 2920.339844 C 1008.550781 2893.730469 1002.570312 2841.039062 1052.519531 2841.039062 C 1133.519531 2841.039062 1059.308594 2954.410156 1141.660156 3021.800781 C 1220.429688 3086.28125 1402.789062 3065.03125 1402.789062 2918.339844 L 1402.789062 2371.660156 C 1402.789062 2313.738281 1490.761719 2313.738281 1490.761719 2371.660156 Z M 1906.859375 2693.089844 C 2029.339844 2715.359375 2181.710938 2743.070312 2181.710938 2918.660156 C 2181.710938 3043.441406 2054.921875 3144.988281 1898.980469 3144.988281 C 1631.210938 3144.988281 1557.109375 2874.691406 1660.289062 2874.691406 C 1684.578125 2874.691406 1704.28125 2894.359375 1704.28125 2918.660156 C 1704.28125 2993.648438 1793.421875 3057.019531 1898.980469 3057.019531 C 2004.539062 3057.019531 2093.738281 2993.648438 2093.738281 2918.660156 C 2093.738281 2826.128906 2031.988281 2805.238281 1891.128906 2779.578125 C 1768.679688 2757.28125 1616.320312 2729.601562 1616.320312 2553.988281 C 1616.320312 2429.199219 1743.101562 2327.691406 1898.980469 2327.691406 C 2166.808594 2327.691406 2240.878906 2597.980469 2137.710938 2597.980469 C 2113.421875 2597.980469 2093.738281 2578.289062 2093.738281 2553.988281 C 2093.738281 2479.03125 2004.539062 2415.648438 1898.980469 2415.648438 C 1793.421875 2415.648438 1704.28125 2479.03125 1704.28125 2553.988281 C 1704.28125 2646.550781 1766 2667.429688 1906.859375 2693.089844 Z M 2758.039062 2191.238281 L 327.199219 2191.269531 C 230.898438 2191.269531 152.535156 2269.609375 152.535156 2365.960938 L 152.535156 3106.738281 C 152.535156 3203.089844 230.898438 3281.441406 327.199219 3281.441406 L 2863.03125 3281.441406 C 2959.371094 3281.441406 3037.71875 3203.058594 3037.71875 3106.71875 L 3037.71875 2365.929688 C 3037.71875 2269.609375 2959.371094 2191.238281 2863.03125 2191.238281 L 2759.121094 2191.269531 L 2758.039062 2191.238281 "/>
</clipPath>
<linearGradient id="linear-pattern-2" gradientUnits="userSpaceOnUse" x1="-0.000000000000000007" y1="0" x2="1.000001" y2="0" gradientTransform="matrix(2885.18, 0, 0, 2885.18, 152.536, 2736.34)">
<stop offset="0" stop-color="rgb(41.567993%, 35.68573%, 65.881348%)" stop-opacity="1"/>
<stop offset="0.015625" stop-color="rgb(41.438293%, 35.862732%, 66.00647%)" stop-opacity="1"/>
<stop offset="0.03125" stop-color="rgb(41.181946%, 36.218262%, 66.25824%)" stop-opacity="1"/>
<stop offset="0.046875" stop-color="rgb(40.924072%, 36.573792%, 66.508484%)" stop-opacity="1"/>
<stop offset="0.0625" stop-color="rgb(40.666199%, 36.929321%, 66.760254%)" stop-opacity="1"/>
<stop offset="0.078125" stop-color="rgb(40.409851%, 37.284851%, 67.012024%)" stop-opacity="1"/>
<stop offset="0.09375" stop-color="rgb(40.151978%, 37.638855%, 67.262268%)" stop-opacity="1"/>
<stop offset="0.109375" stop-color="rgb(39.894104%, 37.994385%, 67.514038%)" stop-opacity="1"/>
<stop offset="0.125" stop-color="rgb(39.637756%, 38.349915%, 67.765808%)" stop-opacity="1"/>
<stop offset="0.140625" stop-color="rgb(39.379883%, 38.705444%, 68.016052%)" stop-opacity="1"/>
<stop offset="0.15625" stop-color="rgb(39.122009%, 39.060974%, 68.267822%)" stop-opacity="1"/>
<stop offset="0.171875" stop-color="rgb(38.865662%, 39.416504%, 68.519592%)" stop-opacity="1"/>
<stop offset="0.1875" stop-color="rgb(38.607788%, 39.772034%, 68.769836%)" stop-opacity="1"/>
<stop offset="0.203125" stop-color="rgb(38.349915%, 40.127563%, 69.021606%)" stop-opacity="1"/>
<stop offset="0.21875" stop-color="rgb(38.093567%, 40.483093%, 69.273376%)" stop-opacity="1"/>
<stop offset="0.234375" stop-color="rgb(37.835693%, 40.838623%, 69.523621%)" stop-opacity="1"/>
<stop offset="0.25" stop-color="rgb(37.57782%, 41.194153%, 69.775391%)" stop-opacity="1"/>
<stop offset="0.265625" stop-color="rgb(37.321472%, 41.548157%, 70.025635%)" stop-opacity="1"/>
<stop offset="0.28125" stop-color="rgb(37.063599%, 41.903687%, 70.277405%)" stop-opacity="1"/>
<stop offset="0.296875" stop-color="rgb(36.805725%, 42.259216%, 70.529175%)" stop-opacity="1"/>
<stop offset="0.3125" stop-color="rgb(36.549377%, 42.614746%, 70.779419%)" stop-opacity="1"/>
<stop offset="0.328125" stop-color="rgb(36.291504%, 42.970276%, 71.031189%)" stop-opacity="1"/>
<stop offset="0.34375" stop-color="rgb(36.03363%, 43.325806%, 71.282959%)" stop-opacity="1"/>
<stop offset="0.359375" stop-color="rgb(35.777283%, 43.681335%, 71.533203%)" stop-opacity="1"/>
<stop offset="0.375" stop-color="rgb(35.519409%, 44.036865%, 71.784973%)" stop-opacity="1"/>
<stop offset="0.390625" stop-color="rgb(35.261536%, 44.392395%, 72.036743%)" stop-opacity="1"/>
<stop offset="0.40625" stop-color="rgb(35.005188%, 44.747925%, 72.286987%)" stop-opacity="1"/>
<stop offset="0.421875" stop-color="rgb(34.747314%, 45.103455%, 72.538757%)" stop-opacity="1"/>
<stop offset="0.4375" stop-color="rgb(34.489441%, 45.457458%, 72.790527%)" stop-opacity="1"/>
<stop offset="0.453125" stop-color="rgb(34.233093%, 45.812988%, 73.040771%)" stop-opacity="1"/>
<stop offset="0.46875" stop-color="rgb(33.97522%, 46.168518%, 73.292542%)" stop-opacity="1"/>
<stop offset="0.484375" stop-color="rgb(33.717346%, 46.524048%, 73.542786%)" stop-opacity="1"/>
<stop offset="0.5" stop-color="rgb(33.460999%, 46.879578%, 73.794556%)" stop-opacity="1"/>
<stop offset="0.515625" stop-color="rgb(33.203125%, 47.235107%, 74.046326%)" stop-opacity="1"/>
<stop offset="0.53125" stop-color="rgb(32.945251%, 47.590637%, 74.29657%)" stop-opacity="1"/>
<stop offset="0.546875" stop-color="rgb(32.688904%, 47.946167%, 74.54834%)" stop-opacity="1"/>
<stop offset="0.5625" stop-color="rgb(32.43103%, 48.301697%, 74.80011%)" stop-opacity="1"/>
<stop offset="0.578125" stop-color="rgb(32.174683%, 48.657227%, 75.050354%)" stop-opacity="1"/>
<stop offset="0.59375" stop-color="rgb(31.916809%, 49.012756%, 75.302124%)" stop-opacity="1"/>
<stop offset="0.609375" stop-color="rgb(31.658936%, 49.36676%, 75.553894%)" stop-opacity="1"/>
<stop offset="0.625" stop-color="rgb(31.402588%, 49.72229%, 75.804138%)" stop-opacity="1"/>
<stop offset="0.640625" stop-color="rgb(31.144714%, 50.07782%, 76.055908%)" stop-opacity="1"/>
<stop offset="0.65625" stop-color="rgb(30.886841%, 50.43335%, 76.307678%)" stop-opacity="1"/>
<stop offset="0.671875" stop-color="rgb(30.630493%, 50.788879%, 76.557922%)" stop-opacity="1"/>
<stop offset="0.6875" stop-color="rgb(30.37262%, 51.144409%, 76.809692%)" stop-opacity="1"/>
<stop offset="0.703125" stop-color="rgb(30.114746%, 51.499939%, 77.059937%)" stop-opacity="1"/>
<stop offset="0.71875" stop-color="rgb(29.858398%, 51.855469%, 77.311707%)" stop-opacity="1"/>
<stop offset="0.734375" stop-color="rgb(29.600525%, 52.210999%, 77.563477%)" stop-opacity="1"/>
<stop offset="0.75" stop-color="rgb(29.342651%, 52.566528%, 77.813721%)" stop-opacity="1"/>
<stop offset="0.765625" stop-color="rgb(29.086304%, 52.922058%, 78.065491%)" stop-opacity="1"/>
<stop offset="0.78125" stop-color="rgb(28.82843%, 53.276062%, 78.317261%)" stop-opacity="1"/>
<stop offset="0.796875" stop-color="rgb(28.570557%, 53.631592%, 78.567505%)" stop-opacity="1"/>
<stop offset="0.8125" stop-color="rgb(28.314209%, 53.987122%, 78.819275%)" stop-opacity="1"/>
<stop offset="0.828125" stop-color="rgb(28.056335%, 54.342651%, 79.071045%)" stop-opacity="1"/>
<stop offset="0.84375" stop-color="rgb(27.798462%, 54.698181%, 79.321289%)" stop-opacity="1"/>
<stop offset="0.859375" stop-color="rgb(27.542114%, 55.053711%, 79.573059%)" stop-opacity="1"/>
<stop offset="0.875" stop-color="rgb(27.284241%, 55.409241%, 79.824829%)" stop-opacity="1"/>
<stop offset="0.890625" stop-color="rgb(27.026367%, 55.764771%, 80.075073%)" stop-opacity="1"/>
<stop offset="0.90625" stop-color="rgb(26.77002%, 56.1203%, 80.326843%)" stop-opacity="1"/>
<stop offset="0.921875" stop-color="rgb(26.512146%, 56.47583%, 80.577087%)" stop-opacity="1"/>
<stop offset="0.9375" stop-color="rgb(26.254272%, 56.83136%, 80.828857%)" stop-opacity="1"/>
<stop offset="0.953125" stop-color="rgb(25.997925%, 57.185364%, 81.080627%)" stop-opacity="1"/>
<stop offset="0.96875" stop-color="rgb(25.740051%, 57.540894%, 81.330872%)" stop-opacity="1"/>
<stop offset="0.984375" stop-color="rgb(25.482178%, 57.896423%, 81.582642%)" stop-opacity="1"/>
<stop offset="1" stop-color="rgb(25.22583%, 58.251953%, 81.834412%)" stop-opacity="1"/>
</linearGradient>
<clipPath id="clip-6">
<path clip-rule="nonzero" d="M 0 0 L 3061.089844 0 L 3061.089844 3304.808594 L 0 3304.808594 Z M 0 0 "/>
</clipPath>
</defs>
<g clip-path="url(#clip-0)">
<g clip-path="url(#clip-1)">
<path fill-rule="nonzero" fill="url(#linear-pattern-0)" d="M 2256.140625 214.71875 L 2256.140625 611.480469 L 2652.960938 611.480469 L 2652.960938 214.71875 Z M 2256.140625 214.71875 "/>
</g>
</g>
<g clip-path="url(#clip-2)">
<g clip-path="url(#clip-3)">
<path fill-rule="nonzero" fill="url(#linear-pattern-1)" d="M 475.0625 152.519531 L 475.0625 2103.328125 L 2715.148438 2103.328125 L 2715.148438 152.519531 Z M 475.0625 152.519531 "/>
</g>
</g>
<g clip-path="url(#clip-4)">
<g clip-path="url(#clip-5)">
<path fill-rule="nonzero" fill="url(#linear-pattern-2)" d="M 152.535156 2191.238281 L 152.535156 3281.441406 L 3037.71875 3281.441406 L 3037.71875 2191.238281 Z M 152.535156 2191.238281 "/>
</g>
</g>
<g clip-path="url(#clip-6)">
<path fill-rule="evenodd" fill="rgb(21.166992%, 4.315186%, 29.417419%)" fill-opacity="1" d="M 1326.621094 804.898438 C 1315.359375 804.898438 1304.101562 800.609375 1295.519531 792.03125 L 1087.480469 583.980469 C 1070.328125 566.828125 1070.328125 538.929688 1087.480469 521.789062 L 1295.519531 313.769531 C 1336.46875 272.800781 1398.671875 335.03125 1357.71875 375.980469 L 1180.769531 552.910156 L 1357.71875 729.851562 C 1385.441406 757.558594 1365.558594 804.898438 1326.621094 804.898438 Z M 1789.640625 804.898438 C 1750.769531 804.898438 1730.808594 757.558594 1758.539062 729.808594 L 1935.488281 552.910156 L 1758.539062 375.988281 C 1717.621094 335.050781 1779.769531 272.820312 1820.710938 313.78125 L 2028.761719 521.800781 C 2045.910156 538.960938 2045.910156 566.851562 2028.761719 583.980469 L 1820.710938 792.03125 C 1812.128906 800.609375 1800.878906 804.898438 1789.640625 804.898438 Z M 1834.421875 3080.429688 C 1566.648438 3080.429688 1492.570312 2810.128906 1595.730469 2810.128906 C 1620.019531 2810.128906 1639.71875 2829.828125 1639.71875 2854.121094 C 1639.71875 2929.089844 1728.890625 2992.460938 1834.421875 2992.460938 C 1939.980469 2992.460938 2029.179688 2929.089844 2029.179688 2854.121094 C 2029.179688 2761.558594 1967.460938 2740.679688 1826.570312 2715.019531 C 1704.121094 2692.75 1551.761719 2665.070312 1551.761719 2489.460938 C 1551.761719 2364.640625 1678.570312 2263.128906 1834.421875 2263.128906 C 2102.28125 2263.128906 2176.320312 2533.421875 2073.148438 2533.421875 C 2048.878906 2533.421875 2029.179688 2513.730469 2029.179688 2489.460938 C 2029.179688 2414.46875 1939.980469 2351.089844 1834.421875 2351.089844 C 1728.890625 2351.089844 1639.71875 2414.46875 1639.71875 2489.460938 C 1639.71875 2581.988281 1701.441406 2602.871094 1842.300781 2628.53125 C 1964.78125 2650.800781 2117.140625 2678.511719 2117.140625 2854.121094 C 2117.140625 2978.910156 1990.359375 3080.429688 1834.421875 3080.429688 Z M 1184.238281 3080.429688 C 1053.058594 3080.429688 943.988281 2993.859375 943.988281 2855.78125 C 943.988281 2829.171875 938.015625 2776.480469 987.972656 2776.480469 C 1068.960938 2776.480469 994.761719 2889.851562 1077.121094 2957.238281 C 1155.890625 3021.71875 1338.25 3000.480469 1338.25 2853.78125 L 1338.25 2307.101562 C 1338.25 2249.179688 1426.210938 2249.210938 1426.210938 2307.101562 L 1426.210938 2853.78125 C 1426.230469 3002.578125 1304.511719 3080.429688 1184.238281 3080.429688 Z M 2334.519531 1113.179688 L 787.933594 1113.179688 C 730.03125 1113.179688 730.03125 1025.21875 787.933594 1025.21875 L 2334.519531 1025.21875 C 2392.410156 1025.21875 2392.410156 1113.179688 2334.519531 1113.179688 Z M 2334.519531 1451.03125 L 787.933594 1451.03125 C 730.03125 1451.03125 730.03125 1363.070312 787.933594 1363.070312 L 2334.519531 1363.070312 C 2392.410156 1363.070312 2392.429688 1451.03125 2334.519531 1451.03125 Z M 2334.519531 1788.800781 L 787.933594 1788.800781 C 730.03125 1788.800781 730.03125 1700.839844 787.933594 1700.839844 L 2334.519531 1700.839844 C 2392.410156 1700.839844 2392.410156 1788.800781 2334.519531 1788.800781 Z M 2191.609375 150.160156 L 2588.421875 546.941406 L 2287.949219 546.921875 C 2234.789062 546.921875 2191.609375 503.738281 2191.609375 450.648438 Z M 2738.558594 597.769531 C 2741.289062 580.070312 2734.21875 566.910156 2721.898438 556.078125 L 2179.890625 14.078125 C 2171.859375 5.421875 2160.378906 0 2147.640625 0 L 752.09375 0 C 515.234375 0 322.523438 192.699219 322.523438 429.570312 L 322.523438 2038.769531 L 262.667969 2038.769531 C 117.839844 2038.769531 0.0117188 2156.570312 0.0117188 2301.398438 L 0 3042.179688 C 0 3187.011719 117.824219 3304.808594 262.652344 3304.808594 L 2798.488281 3304.808594 C 2943.320312 3304.808594 3061.148438 3187.011719 3061.089844 3042.179688 L 3061.089844 2301.398438 C 3061.089844 2156.570312 2943.289062 2038.769531 2798.46875 2038.769531 L 2738.558594 2038.769531 Z M 2650.589844 2038.769531 L 2650.589844 634.898438 L 2287.949219 634.898438 C 2186.328125 634.898438 2103.671875 552.21875 2103.671875 450.621094 L 2103.671875 87.960938 L 752.09375 87.960938 C 563.746094 87.960938 410.515625 241.21875 410.515625 429.539062 L 410.515625 2038.769531 Z M 2694.558594 2126.710938 L 262.652344 2126.710938 C 166.339844 2126.710938 87.988281 2205.058594 87.988281 2301.398438 L 87.988281 3042.179688 C 87.988281 3138.53125 166.339844 3216.871094 262.652344 3216.871094 L 2798.46875 3216.871094 C 2894.808594 3216.871094 2973.160156 3138.53125 2973.160156 3042.179688 L 2973.160156 2301.398438 C 2973.160156 2205.058594 2894.808594 2126.710938 2798.46875 2126.710938 Z M 1502.050781 812.328125 C 1473.300781 812.328125 1452 785.058594 1459.53125 756.980469 L 1571.769531 338.109375 C 1586.769531 282.128906 1671.738281 304.980469 1656.738281 360.859375 L 1544.511719 779.730469 C 1539.238281 799.390625 1521.460938 812.328125 1502.050781 812.328125 "/>
</g>
</svg>
