<svg xmlns="http://www.w3.org/2000/svg" version="1.0" width="256.000000pt" height="128.000000pt" viewBox="0 0 256.000000 128.000000" preserveAspectRatio="xMidYMid meet">
<metadata>
Created by potrace 1.16, written by Peter Selinger 2001-2019
</metadata>
<g transform="translate(0.000000,128.000000) scale(0.100000,-0.100000)" fill="#eeeeee" stroke="none">
<path d="M100 735 l0 -435 100 0 100 0 0 375 0 375 66 0 c82 0 100 -10 127 -68 21 -44 22 -64 25 -364 l3 -318 100 0 99 0 0 296 c0 334 -9 400 -63 481 -53 79 -83 93 -199 93 l-98 0 -22 -45 c-12 -25 -26 -45 -30 -45 -4 0 -8 20 -8 45 l0 45 -100 0 -100 0 0 -435z"/>
<path d="M918 868 l-25 -93 21 -9 c157 -69 215 -115 261 -206 29 -56 55 -162 55 -222 l0 -38 100 0 100 0 0 50 c0 89 -28 201 -75 296 -36 73 -58 104 -114 157 -70 66 -200 140 -267 153 l-30 6 -26 -94z"/>
<path d="M1629 866 l-26 -95 49 -17 c62 -20 159 -85 190 -127 57 -74 98 -192 98 -284 l0 -43 100 0 100 0 0 49 c0 170 -75 349 -193 462 -53 51 -203 134 -262 145 l-30 6 -26 -96z"/>
<path d="M882 517 l-72 -72 73 -73 72 -72 75 75 74 75 -69 70 c-38 38 -72 70 -75 70 -3 0 -38 -33 -78 -73z"/>
<path d="M1595 518 l-70 -73 72 -71 72 -70 73 73 72 73 -69 70 c-38 38 -72 70 -75 70 -3 0 -37 -33 -75 -72z"/>
</g>
</svg>